<svg width="297" height="87" viewBox="0 0 297 87" fill="none" xmlns="http://www.w3.org/2000/svg">
<path d="M20.1964 9.7C20.4297 9.96667 20.6214 10.2917 20.7714 10.675C20.9381 11.0583 21.0631 11.4917 21.1464 11.975C21.3131 12.925 21.2964 13.8583 21.0964 14.775C20.8964 15.675 20.5631 16.2583 20.0964 16.525C18.7631 17.2917 17.2631 17.9 15.5964 18.35C13.9297 18.8 12.0964 19.075 10.0964 19.175C6.09639 19.375 3.41305 18.625 2.04639 16.925C1.16305 15.825 1.02972 14.55 1.64639 13.1C1.77972 12.8 1.95472 12.4917 2.17139 12.175C2.40472 11.8417 2.67972 11.5 2.99639 11.15C3.09639 11.0333 3.20472 10.9917 3.32139 11.025C3.40472 11.0417 3.46305 11.1083 3.49639 11.225C3.52972 11.325 3.50472 11.4167 3.42139 11.5C3.12139 11.8333 2.87972 12.1917 2.69639 12.575C2.52972 12.9417 2.48805 13.2833 2.57139 13.6C3.15472 15.7667 5.57139 16.8083 9.82139 16.725C11.9547 16.6917 13.8881 16.475 15.6214 16.075C17.3714 15.6583 18.9297 15.0583 20.2964 14.275C20.2464 13.625 19.8464 12.825 19.0964 11.875C19.0631 11.825 19.0797 11.625 19.1464 11.275C19.1631 11.2417 19.1714 11.2167 19.1714 11.2C19.2547 10.8 19.4381 10.3 19.7214 9.7C19.8214 9.46667 19.9797 9.46667 20.1964 9.7ZM11.9464 6.55C11.9797 6.5 12.0464 6.48333 12.1464 6.5C12.4297 6.61667 12.7047 6.75 12.9714 6.9C13.2381 7.05 13.4881 7.225 13.7214 7.425C13.7881 7.49167 13.7964 7.55833 13.7464 7.625L12.6714 9.35C12.6381 9.4 12.5714 9.38333 12.4714 9.3C12.4214 9.25 12.2881 9.16667 12.0714 9.05C11.8714 8.91667 11.5797 8.74167 11.1964 8.525L10.3464 9.85C10.2964 9.91667 10.2214 9.90833 10.1214 9.825C10.0547 9.775 9.88805 9.66667 9.62139 9.5C9.37139 9.33333 9.01305 9.10833 8.54639 8.825C8.47972 8.79167 8.47139 8.75 8.52139 8.7L9.62139 7.05C9.65472 7 9.71305 6.98333 9.79639 7C10.0464 7.08333 10.2797 7.19167 10.4964 7.325C10.7297 7.45833 10.9464 7.6 11.1464 7.75L11.9464 6.55ZM25.0409 2.25C25.3909 1.43333 25.6159 1.41667 25.7159 2.2L26.2909 8.325C26.9243 13.8417 26.8493 17.3417 26.0659 18.825C25.9493 19.025 25.8576 19.075 25.7909 18.975C25.7243 18.8917 25.6909 18.75 25.6909 18.55C25.7243 17.15 25.6243 15.575 25.3909 13.825C25.3909 13.7583 25.2159 12.175 24.8659 9.075L24.3159 4.55C24.2826 4.21667 24.3159 3.93333 24.4159 3.7L25.0409 2.25ZM34.3858 12.025C34.4025 11.9583 34.4275 11.9167 34.4608 11.9C34.5442 11.8667 34.6692 11.9333 34.8358 12.1C35.4858 12.7667 35.9692 13.6583 36.2858 14.775C36.6192 15.925 36.7358 17.0417 36.6358 18.125C36.4358 19.5917 35.8525 20.9417 34.8858 22.175C33.9192 23.425 32.6525 24.25 31.0858 24.65C30.6858 24.7667 30.2858 24.7583 29.8858 24.625C28.9192 24.2917 28.1358 24 27.5358 23.75C26.9192 23.5167 26.4942 23.325 26.2608 23.175C26.1942 23.125 26.1608 23.075 26.1608 23.025C26.1608 22.9583 26.1858 22.9 26.2358 22.85C26.2858 22.8 26.3608 22.7917 26.4608 22.825C27.0442 22.9917 27.5775 23.1 28.0608 23.15C28.5442 23.2167 28.9942 23.225 29.4108 23.175C29.8275 23.125 30.2692 23 30.7358 22.8C31.2192 22.6167 31.7275 22.35 32.2608 22C33.8442 20.9833 35.0025 19.7833 35.7358 18.4C35.8025 18.3 35.8192 18.1667 35.7858 18C35.5358 17.1167 34.8858 16.025 33.8358 14.725C33.7858 14.6417 33.7692 14.575 33.7858 14.525L34.3858 12.025ZM40.1462 0.999999C40.2129 0.883332 40.2712 0.833332 40.3212 0.85C40.4045 0.85 40.4712 1.025 40.5212 1.375C40.8212 3.95833 41.0212 6.16667 41.1212 8C41.2045 9.73333 41.2712 11.125 41.3212 12.175C41.3879 13.225 41.4295 13.9333 41.4462 14.3C41.5629 15.8333 42.3962 16.65 43.9462 16.75C44.3962 16.7833 44.5712 17.0833 44.4712 17.65C44.3212 18.55 44.1462 19 43.9462 19C41.7629 19 40.5962 17.9833 40.4462 15.95C40.3795 15.1 40.3212 14.25 40.2712 13.4C40.2379 12.5333 40.2045 11.6667 40.1712 10.8C40.1212 9.06667 40.0212 7.66667 39.8712 6.6C39.7212 5.51667 39.5212 4.29167 39.2712 2.925C39.2212 2.675 39.2462 2.46667 39.3462 2.3L40.1462 0.999999ZM50.0341 16.75C50.3341 16.8333 50.4924 16.925 50.5091 17.025C50.5424 17.1583 50.5424 17.3583 50.5091 17.625C50.3924 18.5417 50.2341 19 50.0341 19C49.1341 19 48.2341 18.4917 47.3341 17.475C46.5674 18.3917 45.4341 18.9 43.9341 19C43.7674 19 43.6591 18.875 43.6091 18.625L43.4091 17.575C43.3591 17.425 43.3924 17.25 43.5091 17.05C43.6091 16.8833 43.7507 16.7833 43.9341 16.75C45.7674 16.6 47.0007 16.05 47.6341 15.1C47.7174 14.9667 47.8341 14.9 47.9841 14.9C48.1341 14.9 48.2091 14.975 48.2091 15.125C48.2091 15.2583 48.2257 15.3583 48.2591 15.425C48.8091 16.175 49.4007 16.6167 50.0341 16.75ZM48.0341 20.775C48.0674 20.725 48.1341 20.7083 48.2341 20.725C48.5174 20.8417 48.7924 20.975 49.0591 21.125C49.3257 21.275 49.5757 21.45 49.8091 21.65C49.8757 21.7167 49.8841 21.7833 49.8341 21.85L48.7591 23.575C48.7257 23.625 48.6591 23.6083 48.5591 23.525C48.5091 23.475 48.3757 23.3833 48.1591 23.25C47.9591 23.1333 47.6674 22.9667 47.2841 22.75L46.4341 24.075C46.3841 24.1417 46.3091 24.1333 46.2091 24.05C46.1424 24 45.9757 23.8917 45.7091 23.725C45.4591 23.5583 45.1007 23.3333 44.6341 23.05C44.5674 23.0167 44.5591 22.975 44.6091 22.925L45.7091 21.275C45.7424 21.225 45.8007 21.2083 45.8841 21.225C46.1341 21.3083 46.3674 21.4167 46.5841 21.55C46.8174 21.6833 47.0341 21.825 47.2341 21.975L48.0341 20.775ZM56.1376 16.75C56.4376 16.8333 56.5959 16.925 56.6126 17.025C56.6459 17.1583 56.6459 17.3583 56.6126 17.625C56.4959 18.5417 56.3376 19 56.1376 19C55.2376 19 54.3376 18.4917 53.4376 17.475C52.6709 18.3917 51.5376 18.9 50.0376 19C49.8709 19 49.7626 18.875 49.7126 18.625L49.5126 17.575C49.4626 17.425 49.4959 17.25 49.6126 17.05C49.7126 16.8833 49.8543 16.7833 50.0376 16.75C51.8709 16.6 53.1043 16.05 53.7376 15.1C53.8209 14.9667 53.9376 14.9 54.0876 14.9C54.2376 14.9 54.3126 14.975 54.3126 15.125C54.3126 15.2583 54.3293 15.3583 54.3626 15.425C54.9126 16.175 55.5043 16.6167 56.1376 16.75ZM53.6126 8.125C53.6459 8.075 53.7126 8.05833 53.8126 8.075C54.0959 8.19167 54.3709 8.325 54.6376 8.475C54.9043 8.625 55.1543 8.8 55.3876 9C55.4543 9.06667 55.4626 9.13333 55.4126 9.2L54.3376 10.925C54.3043 10.975 54.2376 10.9583 54.1376 10.875C54.0876 10.825 53.9543 10.7417 53.7376 10.625C53.5376 10.4917 53.2459 10.3167 52.8626 10.1L52.0126 11.425C51.9626 11.4917 51.8876 11.4833 51.7876 11.4C51.7209 11.35 51.5543 11.2417 51.2876 11.075C51.0376 10.9083 50.6793 10.6833 50.2126 10.4C50.1459 10.3667 50.1376 10.325 50.1876 10.275L51.2876 8.625C51.3209 8.575 51.3793 8.55833 51.4626 8.575C51.7126 8.65833 51.9459 8.76667 52.1626 8.9C52.3959 9.03333 52.6126 9.175 52.8126 9.325L53.6126 8.125ZM56.2911 13.55C56.4244 13.0167 56.7578 12.4917 57.2911 11.975C57.8578 11.4417 58.4494 11.175 59.0661 11.175C59.6994 11.175 61.1494 11.65 63.4161 12.6C63.8328 12.7667 64.3078 12.925 64.8411 13.075C65.3744 13.2083 65.9578 13.3417 66.5911 13.475C67.8744 13.725 69.1911 13.8 70.5411 13.7C70.9078 13.6833 71.0161 13.8333 70.8661 14.15L70.1661 15.675C70.0661 15.875 69.8911 15.95 69.6411 15.9C67.7578 15.5833 65.9744 15.675 64.2911 16.175C62.2244 16.8583 60.5744 17.5 59.3411 18.1C58.1411 18.7 57.0744 19 56.1411 19C56.0411 19 55.9578 18.9167 55.8911 18.75C55.7078 18.25 55.6661 17.7917 55.7661 17.375C55.8661 16.9917 55.9911 16.7833 56.1411 16.75C57.3411 16.6667 58.4911 16.475 59.5911 16.175C60.6911 15.8583 61.7494 15.4417 62.7661 14.925C60.5661 13.6583 58.5411 13.3167 56.6911 13.9C56.5578 13.95 56.4494 13.9333 56.3661 13.85C56.2994 13.7667 56.2744 13.6667 56.2911 13.55ZM63.1911 5.925C63.2244 5.875 63.2911 5.85833 63.3911 5.875C64.0578 6.10833 64.6494 6.45833 65.1661 6.925C65.2328 6.99167 65.2411 7.05833 65.1911 7.125L64.0161 9.025C63.9661 9.10833 63.8828 9.1 63.7661 9C63.6994 8.95 63.5244 8.83333 63.2411 8.65C62.9578 8.46667 62.5494 8.21667 62.0161 7.9C61.9328 7.85 61.9161 7.8 61.9661 7.75L63.1911 5.925ZM79.4979 17.5C80.6979 17.6167 81.6813 17.675 82.4479 17.675C83.2146 17.6583 83.7729 17.5917 84.1229 17.475C83.9563 15.8583 82.7813 13.525 80.5979 10.475C79.8146 9.375 79.1313 8.45833 78.5479 7.725C77.9646 6.975 77.4813 6.41667 77.0979 6.05L76.7229 6.7C76.5063 6.85 76.3063 6.81667 76.1229 6.6L74.3979 4.75C74.1479 4.46667 74.0479 4.14167 74.0979 3.775L74.4479 1.6C74.4813 1.36667 74.5563 1.25 74.6729 1.25C75.0229 1.23333 75.9563 2.14167 77.4729 3.975C78.2396 4.89167 78.9479 5.79167 79.5979 6.675C80.2646 7.54167 80.8729 8.39167 81.4229 9.225C83.7896 12.825 85.0479 15.7333 85.1979 17.95C85.248 18.8833 85.0063 19.425 84.4729 19.575C82.9229 19.975 81.2229 20.025 79.3729 19.725C79.1896 19.7083 79.0729 19.65 79.0229 19.55C78.7229 18.8333 78.7646 18.225 79.1479 17.725C79.2813 17.5417 79.3979 17.4667 79.4979 17.5ZM82.444 17.65C81.944 18.15 81.3524 18.4083 80.669 18.425C80.2357 18.425 80.019 18.3417 80.019 18.175C80.019 17.9917 80.219 17.7917 80.619 17.575C83.319 16.075 84.8524 13.3333 85.219 9.35C85.419 7.3 85.444 5.25833 85.294 3.225C85.244 2.575 85.269 2.16667 85.369 2C85.5524 1.68333 85.694 1.43333 85.794 1.25C85.894 1.06667 85.9607 0.949999 85.994 0.899999C86.0774 0.799999 86.1607 0.758333 86.244 0.774999C86.3607 0.808332 86.4274 0.866665 86.444 0.949998C86.694 1.91667 86.944 2.54167 87.194 2.825C87.444 3.09167 87.4524 3.34167 87.219 3.575L86.519 4.3C86.5524 5.23333 86.5107 6.24167 86.394 7.325C86.294 8.39167 86.1274 9.54167 85.894 10.775C85.344 13.6583 84.194 15.95 82.444 17.65ZM90.788 2.25C91.138 1.43333 91.363 1.41667 91.463 2.2L92.038 8.325C92.6713 13.8417 92.5963 17.3417 91.813 18.825C91.6963 19.025 91.6047 19.075 91.538 18.975C91.4713 18.8917 91.438 18.75 91.438 18.55C91.4713 17.15 91.3713 15.575 91.138 13.825C91.138 13.7583 90.963 12.175 90.613 9.075L90.063 4.55C90.0297 4.21667 90.063 3.93333 90.163 3.7L90.788 2.25ZM114.458 15.3C114.558 15.0667 114.691 15.0333 114.858 15.2C114.941 15.2833 115.049 15.4167 115.183 15.6C115.316 15.7833 115.466 16.0083 115.633 16.275C115.833 16.5917 116.174 16.75 116.658 16.75C117.008 16.75 117.208 16.925 117.258 17.275C117.308 17.5917 117.249 17.9667 117.083 18.4C116.933 18.8 116.791 19 116.658 19H115.883C115.783 20.95 115.191 22.75 114.108 24.4C112.858 26.3 110.741 27.3 107.758 27.4C106.258 27.45 105.049 27.0333 104.133 26.15C103.233 25.2667 102.816 24.1917 102.883 22.925C102.916 22.2917 103.091 21.5417 103.408 20.675C103.741 19.825 104.199 18.8583 104.783 17.775C104.833 17.675 104.899 17.625 104.983 17.625C105.099 17.625 105.183 17.6583 105.233 17.725C105.299 17.8083 105.291 17.9167 105.208 18.05C104.391 19.6333 104.008 20.725 104.058 21.325C104.174 23.5417 105.508 24.6667 108.058 24.7C110.824 24.7167 112.916 23.9583 114.333 22.425C114.616 20.4083 114.458 18.7333 113.858 17.4C113.758 17.1667 113.716 17.025 113.733 16.975L114.458 15.3ZM109.183 9.725C109.216 9.675 109.283 9.65833 109.383 9.675C110.049 9.90833 110.641 10.2583 111.158 10.725C111.224 10.7917 111.233 10.8583 111.183 10.925L110.008 12.825C109.958 12.9083 109.874 12.9 109.758 12.8C109.691 12.75 109.516 12.6333 109.233 12.45C108.949 12.2667 108.541 12.0167 108.008 11.7C107.924 11.65 107.908 11.6 107.958 11.55L109.183 9.725ZM122.489 11.05C123.622 11.0833 124.397 12.4667 124.814 15.2C124.847 15.3833 124.822 15.525 124.739 15.625L123.364 17.35C123.247 17.5167 123.089 17.575 122.889 17.525C121.605 17.1583 120.472 16.5583 119.489 15.725C118.705 17.9083 117.764 19 116.664 19C116.547 19 116.422 18.825 116.289 18.475C116.022 17.6417 116.014 17.1083 116.264 16.875C116.364 16.7917 116.497 16.75 116.664 16.75C117.43 16.7333 118.164 16.2667 118.864 15.35C119.097 15.0333 119.639 14.1167 120.489 12.6C121.072 11.5667 121.739 11.05 122.489 11.05ZM120.689 13.5C121.272 14.0667 122.022 14.45 122.939 14.65C122.955 13.9333 122.714 13.4583 122.214 13.225C121.714 12.9917 121.205 13.0833 120.689 13.5ZM131.805 22.7C131.689 22.6333 131.622 22.5583 131.605 22.475C131.589 22.4083 131.614 22.3417 131.68 22.275C131.73 22.225 131.814 22.2167 131.93 22.25C133.53 22.7167 134.955 22.7083 136.205 22.225C138.355 21.375 139.914 20.0833 140.88 18.35C140.897 18.3167 140.905 18.2917 140.905 18.275C140.922 18.2583 140.93 18.2417 140.93 18.225C140.93 17.6083 140.505 16.775 139.655 15.725C139.622 15.6583 139.614 15.6083 139.63 15.575L140.355 13.025C140.422 12.7917 140.647 12.9833 141.03 13.6C141.497 14.3333 141.789 15.225 141.905 16.275C141.972 16.775 141.897 17.5583 141.68 18.625C141.464 19.675 140.822 20.8083 139.755 22.025C138.705 23.225 137.714 23.875 136.78 23.975C135.097 24.1583 133.439 23.7333 131.805 22.7ZM145.156 11.275C145.322 11.3083 145.414 11.4417 145.431 11.675C145.447 11.7917 145.472 12.025 145.506 12.375C145.556 12.7083 145.614 13.15 145.681 13.7C145.797 14.7833 145.981 15.5333 146.231 15.95C146.481 16.3833 146.872 16.65 147.406 16.75C147.956 16.85 148.164 17.1667 148.031 17.7C147.831 18.5667 147.631 19 147.431 19C146.364 19 145.656 18.5 145.306 17.5C145.222 17.2333 145.139 16.9333 145.056 16.6C144.989 16.25 144.939 15.8583 144.906 15.425C144.872 14.9917 144.839 14.65 144.806 14.4C144.789 14.15 144.781 14.0083 144.781 13.975C144.781 13.9417 144.772 13.9333 144.756 13.95C144.739 13.95 144.714 13.9833 144.681 14.05C144.131 15.4167 143.089 16.125 141.556 16.175C140.889 16.1917 140.489 15.8667 140.356 15.2C140.256 14.6333 140.306 14.225 140.506 13.975C140.706 13.725 140.906 13.6667 141.106 13.8C141.289 13.9333 141.431 14 141.531 14C142.564 14.1 143.322 13.9333 143.806 13.5C144.122 13.25 144.464 12.5833 144.831 11.5C144.881 11.3167 144.989 11.2417 145.156 11.275ZM145.256 4.95C145.289 4.9 145.356 4.88333 145.456 4.9C145.739 5.01667 146.014 5.15 146.281 5.3C146.547 5.45 146.797 5.625 147.031 5.825C147.097 5.89167 147.106 5.95833 147.056 6.025L145.981 7.75C145.947 7.8 145.881 7.78333 145.781 7.7C145.731 7.65 145.597 7.56667 145.381 7.45C145.181 7.31667 144.889 7.14167 144.506 6.925L143.656 8.25C143.606 8.31667 143.531 8.30833 143.431 8.225C143.364 8.175 143.197 8.06667 142.931 7.9C142.681 7.73333 142.322 7.50833 141.856 7.225C141.789 7.19167 141.781 7.15 141.831 7.1L142.931 5.45C142.964 5.4 143.022 5.38333 143.106 5.4C143.356 5.48333 143.589 5.59167 143.806 5.725C144.039 5.85833 144.256 6 144.456 6.15L145.256 4.95ZM155.201 13.375C155.534 13.525 155.909 13.675 156.326 13.825C156.743 13.9583 157.201 14.0917 157.701 14.225C158.201 14.3417 158.693 14.4417 159.176 14.525C159.659 14.5917 160.134 14.6167 160.601 14.6C160.751 14.6 160.868 14.6333 160.951 14.7C161.034 14.7667 161.043 14.8833 160.976 15.05C160.826 15.3667 160.693 15.6417 160.576 15.875C160.476 16.1083 160.384 16.2917 160.301 16.425C160.134 16.6917 159.984 16.825 159.851 16.825C159.401 16.775 158.918 16.7583 158.401 16.775C157.901 16.7917 157.368 16.85 156.801 16.95C156.234 17.05 155.701 17.1583 155.201 17.275C154.701 17.3917 154.234 17.525 153.801 17.675C151.301 18.5083 149.743 18.95 149.126 19C148.509 19.05 147.934 19.05 147.401 19C147.351 17.4 147.376 16.5083 147.476 16.325C147.709 15.875 147.959 15.4417 148.226 15.025C148.493 14.6083 148.776 14.2083 149.076 13.825C150.043 12.6083 150.826 12.0167 151.426 12.05C151.726 12.0667 152.193 12.1833 152.826 12.4C153.459 12.6167 154.251 12.9417 155.201 13.375ZM153.601 15.375C152.568 14.7917 151.568 14.4833 150.601 14.45C150.101 14.45 149.626 14.65 149.176 15.05C148.743 15.4333 148.401 15.9833 148.151 16.7C148.918 16.75 150.376 16.5 152.526 15.95L153.601 15.675C153.684 15.6417 153.734 15.6083 153.751 15.575C153.784 15.525 153.734 15.4583 153.601 15.375ZM151.526 6.275C151.559 6.225 151.626 6.20833 151.726 6.225C152.393 6.45833 152.984 6.80833 153.501 7.275C153.568 7.34167 153.576 7.40833 153.526 7.475L152.351 9.375C152.301 9.45833 152.218 9.45 152.101 9.35C152.034 9.3 151.859 9.18333 151.576 9C151.293 8.81667 150.884 8.56667 150.351 8.25C150.268 8.2 150.251 8.15 150.301 8.1L151.526 6.275ZM164.787 2.25C165.137 1.43333 165.362 1.41667 165.462 2.2L166.037 8.325C166.67 13.8417 166.595 17.3417 165.812 18.825C165.695 19.025 165.604 19.075 165.537 18.975C165.47 18.8917 165.437 18.75 165.437 18.55C165.47 17.15 165.37 15.575 165.137 13.825C165.137 13.7583 164.962 12.175 164.612 9.075L164.062 4.55C164.029 4.21667 164.062 3.93333 164.162 3.7L164.787 2.25ZM172.207 14.15C172.79 12.5333 173.474 11.7333 174.257 11.75C174.74 11.75 175.19 12.0833 175.607 12.75C175.824 13.0833 175.99 13.4333 176.107 13.8C176.224 14.1667 176.315 14.5583 176.382 14.975C176.515 15.8083 176.39 16.9667 176.007 18.45C175.624 19.9333 174.89 21.2917 173.807 22.525C172.707 23.775 171.832 24.4333 171.182 24.5C170.515 24.5667 169.632 24.5167 168.532 24.35C167.982 24.2667 167.515 24.1667 167.132 24.05C166.732 23.95 166.407 23.85 166.157 23.75C165.974 23.6667 165.89 23.5667 165.907 23.45C165.94 23.3167 166.049 23.2667 166.232 23.3C167.532 23.4833 168.774 23.4333 169.957 23.15C170.307 23.0667 170.732 22.8583 171.232 22.525C171.749 22.1917 172.34 21.7333 173.007 21.15C173.674 20.5667 174.207 20.0333 174.607 19.55C175.007 19.0667 175.265 18.625 175.382 18.225C175.299 17.525 175.199 17.1417 175.082 17.075C174.449 18.0583 173.64 18.3 172.657 17.8C171.674 17.3 171.524 16.0833 172.207 14.15ZM174.482 15.075C173.999 14.2917 173.482 14.2583 172.932 14.975C173.349 15.4417 173.865 15.475 174.482 15.075ZM196.242 7.5C196.525 8.05 196.792 8.65 197.042 9.3C197.292 9.95 197.508 10.6667 197.692 11.45C197.875 12.2167 197.983 12.975 198.017 13.725C198.05 14.4583 198.008 15.1917 197.892 15.925C197.758 16.725 197.508 17.4083 197.142 17.975C196.175 19.4917 194.483 20.3667 192.067 20.6C190.35 20.7667 189.033 20.425 188.117 19.575C187.233 18.725 186.825 17.5583 186.892 16.075C186.975 14.5583 187.483 13.1583 188.417 11.875C188.55 11.6917 188.675 11.6417 188.792 11.725C188.942 11.8083 188.933 11.975 188.767 12.225C187.733 13.9583 187.533 15.3667 188.167 16.45C188.783 17.5167 190.042 18.05 191.942 18.05C194.158 18.0167 195.917 17.2917 197.217 15.875C197.25 15.8417 197.267 15.7667 197.267 15.65C197.283 14.8833 197.042 13.8417 196.542 12.525C196.292 11.875 196.058 11.3167 195.842 10.85C195.625 10.3667 195.417 9.98333 195.217 9.7C195.1 9.53333 195.067 9.39167 195.117 9.275L195.867 7.425C195.95 7.225 196.075 7.25 196.242 7.5ZM191.617 3.75C191.65 3.7 191.717 3.68333 191.817 3.7C192.483 3.93333 193.075 4.28333 193.592 4.75C193.658 4.81667 193.667 4.88333 193.617 4.95L192.442 6.85C192.392 6.93333 192.308 6.925 192.192 6.825C192.125 6.775 191.95 6.65833 191.667 6.475C191.383 6.29167 190.975 6.04167 190.442 5.725C190.358 5.675 190.342 5.625 190.392 5.575L191.617 3.75ZM206.573 17.5C207.773 17.6167 208.756 17.675 209.523 17.675C210.29 17.6583 210.848 17.5917 211.198 17.475C211.031 15.8583 209.856 13.525 207.673 10.475C206.89 9.375 206.206 8.45833 205.623 7.725C205.04 6.975 204.556 6.41667 204.173 6.05L203.798 6.7C203.581 6.85 203.381 6.81667 203.198 6.6L201.473 4.75C201.223 4.46667 201.123 4.14167 201.173 3.775L201.523 1.6C201.556 1.36667 201.631 1.25 201.748 1.25C202.098 1.23333 203.031 2.14167 204.548 3.975C205.315 4.89167 206.023 5.79167 206.673 6.675C207.34 7.54167 207.948 8.39167 208.498 9.225C210.865 12.825 212.123 15.7333 212.273 17.95C212.323 18.8833 212.081 19.425 211.548 19.575C209.998 19.975 208.298 20.025 206.448 19.725C206.265 19.7083 206.148 19.65 206.098 19.55C205.798 18.8333 205.84 18.225 206.223 17.725C206.356 17.5417 206.473 17.4667 206.573 17.5ZM209.519 17.65C209.019 18.15 208.428 18.4083 207.744 18.425C207.311 18.425 207.094 18.3417 207.094 18.175C207.094 17.9917 207.294 17.7917 207.694 17.575C210.394 16.075 211.928 13.3333 212.294 9.35C212.494 7.3 212.519 5.25833 212.369 3.225C212.319 2.575 212.344 2.16667 212.444 2C212.628 1.68333 212.769 1.43333 212.869 1.25C212.969 1.06667 213.036 0.949999 213.069 0.899999C213.153 0.799999 213.236 0.758333 213.319 0.774999C213.436 0.808332 213.503 0.866665 213.519 0.949998C213.769 1.91667 214.019 2.54167 214.269 2.825C214.519 3.09167 214.528 3.34167 214.294 3.575L213.594 4.3C213.628 5.23333 213.586 6.24167 213.469 7.325C213.369 8.39167 213.203 9.54167 212.969 10.775C212.419 13.6583 211.269 15.95 209.519 17.65ZM217.863 2.25C218.213 1.43333 218.438 1.41667 218.538 2.2L219.113 8.325C219.747 13.8417 219.672 17.3417 218.888 18.825C218.772 19.025 218.68 19.075 218.613 18.975C218.547 18.8917 218.513 18.75 218.513 18.55C218.547 17.15 218.447 15.575 218.213 13.825C218.213 13.7583 218.038 12.175 217.688 9.075L217.138 4.55C217.105 4.21667 217.138 3.93333 217.238 3.7L217.863 2.25ZM236.058 15.875C235.975 16.125 235.866 16.2917 235.733 16.375C235.116 16.5917 234.416 16.9083 233.633 17.325C232.866 17.7417 232.016 18.2667 231.083 18.9C230.916 19 230.783 19 230.683 18.9C230.65 18.8667 230.633 18.8417 230.633 18.825C230.483 18.525 230.875 17.975 231.808 17.175C230.441 16.675 229.816 16.0167 229.933 15.2C230 14.5333 230.516 13.6417 231.483 12.525C232.066 11.875 232.558 11.55 232.958 11.55C233.808 11.55 234.191 12.0167 234.108 12.95C234.091 13.25 233.983 13.5667 233.783 13.9C233.6 14.2167 233.391 14.2583 233.158 14.025C232.408 13.3083 231.866 13.1833 231.533 13.65C231.183 14.1667 231.483 14.65 232.433 15.1C233.016 15.3833 233.683 15.45 234.433 15.3C234.666 15.25 234.925 15.1417 235.208 14.975C235.358 14.8917 235.5 14.825 235.633 14.775C235.766 14.7083 235.883 14.6667 235.983 14.65C236.3 14.6 236.391 14.7917 236.258 15.225L236.058 15.875ZM249.654 16.75C249.921 16.8333 250.088 17.05 250.154 17.4C250.238 17.8 250.229 18.1667 250.129 18.5C250.029 18.8333 249.871 19 249.654 19C248.571 18.9333 247.829 18.025 247.429 16.275C247.363 15.9917 247.313 15.7833 247.279 15.65C247.246 15.5 247.229 15.425 247.229 15.425C247.179 15.2917 247.129 15.3 247.079 15.45C246.546 16.8667 245.879 17.7333 245.079 18.05C244.063 18.4667 242.663 18.6167 240.879 18.5C239.496 18.4 239.138 17.3083 239.804 15.225C239.888 14.975 240.013 14.8417 240.179 14.825C240.346 14.8083 240.463 14.9167 240.529 15.15C240.679 15.6333 240.904 15.9083 241.204 15.975C242.821 16.325 244.279 16.2417 245.579 15.725C246.213 15.475 246.638 15.0083 246.854 14.325C246.871 14.225 246.754 13.3333 246.504 11.65C246.388 10.8167 246.296 10.1417 246.229 9.625C246.163 9.09167 246.113 8.73333 246.079 8.55C246.029 8.18333 246.054 7.9 246.154 7.7C246.288 7.41667 246.404 7.175 246.504 6.975C246.604 6.75833 246.679 6.58333 246.729 6.45C246.779 6.31667 246.863 6.25833 246.979 6.275C247.113 6.30833 247.188 6.39167 247.204 6.525C247.404 8.275 247.613 9.85 247.829 11.25C248.063 12.6333 248.296 13.8417 248.529 14.875C248.779 16.0083 249.154 16.6333 249.654 16.75ZM255.747 16.75C256.047 16.8333 256.205 16.925 256.222 17.025C256.255 17.1583 256.255 17.3583 256.222 17.625C256.105 18.5417 255.947 19 255.747 19C254.847 19 253.947 18.4917 253.047 17.475C252.28 18.3917 251.147 18.9 249.647 19C249.48 19 249.372 18.875 249.322 18.625L249.122 17.575C249.072 17.425 249.105 17.25 249.222 17.05C249.322 16.8833 249.464 16.7833 249.647 16.75C251.48 16.6 252.714 16.05 253.347 15.1C253.43 14.9667 253.547 14.9 253.697 14.9C253.847 14.9 253.922 14.975 253.922 15.125C253.922 15.2583 253.939 15.3583 253.972 15.425C254.522 16.175 255.114 16.6167 255.747 16.75ZM252.422 21.8C252.455 21.75 252.522 21.7333 252.622 21.75C253.289 21.9833 253.88 22.3333 254.397 22.8C254.464 22.8667 254.472 22.9333 254.422 23L253.247 24.9C253.197 24.9833 253.114 24.975 252.997 24.875C252.93 24.825 252.755 24.7083 252.472 24.525C252.189 24.3417 251.78 24.0917 251.247 23.775C251.164 23.725 251.147 23.675 251.197 23.625L252.422 21.8ZM256.15 2.5C256.4 1.9 256.55 1.525 256.6 1.375C256.65 1.225 256.734 1.15 256.85 1.15C256.984 1.15 257.075 1.23333 257.125 1.4C257.375 2.15 257.734 2.75833 258.2 3.225C258.367 3.375 258.359 3.56667 258.175 3.8L257.625 4.575C257.675 5.04167 257.725 5.49167 257.775 5.925C257.825 6.35833 257.875 6.775 257.925 7.175C258.475 11.325 258.667 13.8417 258.5 14.725C257.967 17.375 257.05 18.8 255.75 19C255.717 19 255.684 19 255.65 19C255.417 18.9333 255.325 18.3833 255.375 17.35C255.375 16.9667 255.5 16.7667 255.75 16.75C256.667 16.65 257.3 16.275 257.65 15.625C257.634 14.975 257.567 14.1333 257.45 13.1C257.35 12.0667 257.209 10.8583 257.025 9.475C256.859 8.09167 256.717 6.975 256.6 6.125C256.484 5.275 256.409 4.69167 256.375 4.375L256.125 2.95C256.109 2.75 256.117 2.6 256.15 2.5ZM262.046 0.999999C262.112 0.883332 262.171 0.833332 262.221 0.85C262.304 0.85 262.371 1.025 262.421 1.375C262.721 3.95833 262.921 6.16667 263.021 8C263.104 9.73333 263.171 11.125 263.221 12.175C263.287 13.225 263.329 13.9333 263.346 14.3C263.462 15.8333 264.296 16.65 265.846 16.75C266.296 16.7833 266.471 17.0833 266.371 17.65C266.221 18.55 266.046 19 265.846 19C263.662 19 262.496 17.9833 262.346 15.95C262.279 15.1 262.221 14.25 262.171 13.4C262.137 12.5333 262.104 11.6667 262.071 10.8C262.021 9.06667 261.921 7.66667 261.771 6.6C261.621 5.51667 261.421 4.29167 261.171 2.925C261.121 2.675 261.146 2.46667 261.246 2.3L262.046 0.999999ZM267.333 13.725L268.033 12.175C268.167 11.875 268.317 11.8667 268.483 12.15C268.817 12.7667 269.017 13.4417 269.083 14.175C269.15 14.8917 269.075 15.6833 268.858 16.55C268.458 18.1833 267.45 19 265.833 19C265.667 19 265.492 18.575 265.308 17.725C265.225 17.2917 265.267 17 265.433 16.85C265.533 16.7667 265.667 16.7333 265.833 16.75C266.817 16.8 267.558 16.5333 268.058 15.95C268.092 15.9167 268.092 15.8583 268.058 15.775C267.958 15.3083 267.733 14.825 267.383 14.325C267.25 14.1417 267.233 13.9417 267.333 13.725ZM267.508 21.8C267.542 21.75 267.608 21.7333 267.708 21.75C268.375 21.9833 268.967 22.3333 269.483 22.8C269.55 22.8667 269.558 22.9333 269.508 23L268.333 24.9C268.283 24.9833 268.2 24.975 268.083 24.875C268.017 24.825 267.842 24.7083 267.558 24.525C267.275 24.3417 266.867 24.0917 266.333 23.775C266.25 23.725 266.233 23.675 266.283 23.625L267.508 21.8ZM284.419 13.9C284.836 14.3833 285.294 14.8083 285.794 15.175C286.294 15.5417 286.836 15.8333 287.419 16.05C288.002 16.2667 288.586 16.4333 289.169 16.55C289.752 16.6667 290.344 16.7333 290.944 16.75C291.477 16.7833 291.686 17.1583 291.569 17.875C291.452 18.625 291.244 19 290.944 19C289.427 19 288.061 18.6667 286.844 18C286.777 17.9667 286.744 17.9917 286.744 18.075C286.811 19.8417 286.494 21.0167 285.794 21.6C285.561 21.7833 285.327 21.775 285.094 21.575C284.611 21.1417 284.211 20.5917 283.894 19.925C283.594 19.2583 283.402 18.475 283.319 17.575C282.452 17.5917 281.536 18.0833 280.569 19.05C280.386 19.25 280.444 20.3333 280.744 22.3C281.211 25.3333 281.527 27.7167 281.694 29.45C281.861 31.2 281.886 32.2917 281.769 32.725C281.669 33.125 281.552 33.3583 281.419 33.425C281.269 33.5083 281.136 33.4667 281.019 33.3C280.902 33.1333 280.844 32.8917 280.844 32.575C280.794 30.9583 280.469 28.375 279.869 24.825C279.352 21.8083 279.394 19.5167 279.994 17.95C280.544 16.5667 281.727 15.5 283.544 14.75C283.644 14.4333 283.769 14.1667 283.919 13.95C284.069 13.7167 284.236 13.7 284.419 13.9ZM293.831 8.775C294.047 8.775 294.314 8.90833 294.631 9.175C296.131 10.475 296.839 12.125 296.756 14.125C296.706 15.175 296.447 16.0083 295.981 16.625C294.747 18.2083 293.072 19 290.956 19C290.739 19 290.581 18.8083 290.481 18.425C290.431 18.2417 290.414 18.05 290.431 17.85C290.431 17.65 290.447 17.4667 290.481 17.3C290.547 16.9667 290.706 16.7833 290.956 16.75C293.039 16.6 294.606 16 295.656 14.95C295.606 14.4333 295.531 14.1083 295.431 13.975C295.314 13.7917 295.214 13.7167 295.131 13.75C295.064 13.7667 295.022 13.8 295.006 13.85C294.722 14.5833 294.289 15.0167 293.706 15.15C291.872 15.55 291.031 14.8417 291.181 13.025C291.247 12.1583 291.581 11.225 292.181 10.225C292.747 9.25833 293.297 8.775 293.831 8.775ZM293.006 11.475C292.639 11.4917 292.414 11.8167 292.331 12.45C292.331 12.55 292.339 12.6 292.356 12.6C292.689 12.7 293.031 12.725 293.381 12.675C293.714 12.625 293.939 12.5167 294.056 12.35C293.672 11.7333 293.322 11.4417 293.006 11.475ZM294.531 3.125C294.564 3.075 294.631 3.05833 294.731 3.075C295.014 3.19167 295.289 3.325 295.556 3.475C295.822 3.625 296.072 3.8 296.306 4C296.372 4.06667 296.381 4.13333 296.331 4.2L295.256 5.925C295.222 5.975 295.156 5.95833 295.056 5.875C295.006 5.825 294.872 5.74167 294.656 5.625C294.456 5.49167 294.164 5.31667 293.781 5.1L292.931 6.425C292.881 6.49167 292.806 6.48333 292.706 6.4C292.639 6.35 292.472 6.24167 292.206 6.075C291.956 5.90833 291.597 5.68333 291.131 5.4C291.064 5.36667 291.056 5.325 291.106 5.275L292.206 3.625C292.239 3.575 292.297 3.55833 292.381 3.575C292.631 3.65833 292.864 3.76667 293.081 3.9C293.314 4.03333 293.531 4.175 293.731 4.325L294.531 3.125ZM53.5617 62C53.6284 61.8833 53.6867 61.8333 53.7367 61.85C53.8201 61.85 53.8867 62.025 53.9367 62.375C54.2367 64.9583 54.4367 67.1667 54.5367 69C54.6201 70.7333 54.6867 72.125 54.7367 73.175C54.8034 74.225 54.8451 74.9333 54.8617 75.3C54.9784 76.8333 55.8117 77.65 57.3617 77.75C57.8117 77.7833 57.9867 78.0833 57.8867 78.65C57.7367 79.55 57.5617 80 57.3617 80C55.1784 80 54.0117 78.9833 53.8617 76.95C53.7951 76.1 53.7367 75.25 53.6867 74.4C53.6534 73.5333 53.6201 72.6667 53.5867 71.8C53.5367 70.0667 53.4367 68.6667 53.2867 67.6C53.1367 66.5167 52.9367 65.2917 52.6867 63.925C52.6367 63.675 52.6617 63.4667 52.7617 63.3L53.5617 62ZM63.4496 77.75C63.7496 77.8333 63.9079 77.925 63.9246 78.025C63.9579 78.1583 63.9579 78.3583 63.9246 78.625C63.8079 79.5417 63.6496 80 63.4496 80C62.5496 80 61.6496 79.4917 60.7496 78.475C59.9829 79.3917 58.8496 79.9 57.3496 80C57.1829 80 57.0746 79.875 57.0246 79.625L56.8246 78.575C56.7746 78.425 56.8079 78.25 56.9246 78.05C57.0246 77.8833 57.1663 77.7833 57.3496 77.75C59.1829 77.6 60.4163 77.05 61.0496 76.1C61.1329 75.9667 61.2496 75.9 61.3996 75.9C61.5496 75.9 61.6246 75.975 61.6246 76.125C61.6246 76.2583 61.6413 76.3583 61.6746 76.425C62.2246 77.175 62.8163 77.6167 63.4496 77.75ZM59.9996 67.925C60.0329 67.875 60.0996 67.8583 60.1996 67.875C60.8663 68.1083 61.4579 68.4583 61.9746 68.925C62.0413 68.9917 62.0496 69.0583 61.9996 69.125L60.8246 71.025C60.7746 71.1083 60.6913 71.1 60.5746 71C60.5079 70.95 60.3329 70.8333 60.0496 70.65C59.7663 70.4667 59.3579 70.2167 58.8246 69.9C58.7413 69.85 58.7246 69.8 58.7746 69.75L59.9996 67.925ZM72.6031 77.75C73.1698 77.75 73.4198 78.0417 73.3531 78.625C73.2198 79.525 72.9698 79.9833 72.6031 80C71.0698 80.1 69.5281 79.2417 67.9781 77.425C65.8781 79.1583 64.3698 80.0167 63.4531 80C63.0698 80 62.8115 79.6833 62.6781 79.05C62.5281 78.2167 62.7865 77.7833 63.4531 77.75C63.9698 77.7167 64.4698 77.6167 64.9531 77.45C65.4531 77.2833 65.9365 77.0417 66.4031 76.725C65.8865 76.2083 65.1281 75.875 64.1281 75.725C64.0281 75.7083 63.9865 75.6167 64.0031 75.45C64.0698 74.9667 64.5031 74.375 65.3031 73.675C66.7365 72.5083 68.3448 72.4667 70.1281 73.55C70.9781 74.0667 71.3781 74.5667 71.3281 75.05C71.2781 75.55 70.6948 76.15 69.5781 76.85C70.1781 77.45 71.1865 77.75 72.6031 77.75ZM78.4334 72.05C79.5667 72.0833 80.3417 73.4667 80.7584 76.2C80.7917 76.3833 80.7667 76.525 80.6834 76.625L79.3084 78.35C79.1917 78.5167 79.0334 78.575 78.8334 78.525C77.5501 78.1583 76.4167 77.5583 75.4334 76.725C74.6501 78.9083 73.7084 80 72.6084 80C72.4917 80 72.3667 79.825 72.2334 79.475C71.9667 78.6417 71.9584 78.1083 72.2084 77.875C72.3084 77.7917 72.4417 77.75 72.6084 77.75C73.3751 77.7333 74.1084 77.2667 74.8084 76.35C75.0417 76.0333 75.5834 75.1167 76.4334 73.6C77.0167 72.5667 77.6834 72.05 78.4334 72.05ZM76.6334 74.5C77.2167 75.0667 77.9667 75.45 78.8834 75.65C78.9001 74.9333 78.6584 74.4583 78.1584 74.225C77.6584 73.9917 77.1501 74.0833 76.6334 74.5ZM106.875 62.275C107.058 61.975 107.167 62 107.2 62.35C107.217 62.5167 107.25 63.0083 107.3 63.825C107.367 64.625 107.458 65.75 107.575 67.2C107.958 71.9833 108.283 74.775 108.55 75.575C108.983 76.8083 109.533 77.5333 110.2 77.75C110.533 77.85 110.733 78.0833 110.8 78.45C110.867 78.8167 110.825 79.1667 110.675 79.5C110.525 79.8333 110.367 80 110.2 80C108.567 80 107.6 78.5417 107.3 75.625C107.033 76.275 106.617 76.95 106.05 77.65C105.517 78.3 104.95 78.7833 104.35 79.1C102.417 80.1 100.292 80.6333 97.975 80.7C94.5583 80.8167 92.4167 80.0667 91.55 78.45C91.3167 77.9833 91.2 77.5333 91.2 77.1C91.25 75.4667 91.775 74.05 92.775 72.85C92.8583 72.75 92.9583 72.7 93.075 72.7C93.175 72.7 93.2417 72.7583 93.275 72.875C93.2917 72.975 93.25 73.1 93.15 73.25C92.4333 74.3667 92.125 75.1833 92.225 75.7C92.575 77.4167 94.3583 78.3 97.575 78.35C99.7583 78.3667 102.025 77.925 104.375 77.025C105.192 76.6917 105.825 76.2 106.275 75.55C106.408 75.3667 106.483 75.0083 106.5 74.475C106.533 73.925 106.433 72.275 106.2 69.525C106.083 68.1417 105.992 67.1167 105.925 66.45C105.875 65.7667 105.85 65.425 105.85 65.425C105.75 64.475 105.808 63.8417 106.025 63.525L106.875 62.275ZM100.675 65.575C100.742 65.575 100.792 65.6083 100.825 65.675C100.842 65.725 100.842 65.7833 100.825 65.85L100.3 67.175C100.217 67.375 100.125 67.4917 100.025 67.525C99.575 67.625 99.25 67.8 99.05 68.05C98.95 68.1667 99.0667 68.3 99.4 68.45C99.5833 68.5167 99.775 68.575 99.975 68.625C100.192 68.675 100.425 68.7167 100.675 68.75C101.808 68.9167 101.792 69.825 100.625 71.475C100.258 71.9583 99.9083 72.25 99.575 72.35C99.275 72.45 98.6917 72.4583 97.825 72.375C97.4083 72.3417 97.0333 72.2833 96.7 72.2C96.3667 72.1167 96.075 72.0333 95.825 71.95C95.6417 71.8667 95.55 71.7583 95.55 71.625C95.55 71.475 95.6333 71.4 95.8 71.4C96.2333 71.3667 96.7917 71.3417 97.475 71.325C98.825 71.3083 99.6417 71.2167 99.925 71.05C99.9917 71.0167 100.008 70.9583 99.975 70.875C99.9583 70.825 99.8917 70.7833 99.775 70.75L99.05 70.575C98.6167 70.475 98.3 70.3083 98.1 70.075C97.8667 69.825 97.7917 69.5583 97.875 69.275C98.375 67.175 99.3083 65.9417 100.675 65.575ZM111.682 74.725L112.382 73.175C112.515 72.875 112.665 72.8667 112.832 73.15C113.165 73.7667 113.365 74.4417 113.432 75.175C113.498 75.8917 113.423 76.6833 113.207 77.55C112.807 79.1833 111.798 80 110.182 80C110.015 80 109.84 79.575 109.657 78.725C109.573 78.2917 109.615 78 109.782 77.85C109.882 77.7667 110.015 77.7333 110.182 77.75C111.165 77.8 111.907 77.5333 112.407 76.95C112.44 76.9167 112.44 76.8583 112.407 76.775C112.307 76.3083 112.082 75.825 111.732 75.325C111.598 75.1417 111.582 74.9417 111.682 74.725ZM111.857 82.8C111.89 82.75 111.957 82.7333 112.057 82.75C112.723 82.9833 113.315 83.3333 113.832 83.8C113.898 83.8667 113.907 83.9333 113.857 84L112.682 85.9C112.632 85.9833 112.548 85.975 112.432 85.875C112.365 85.825 112.19 85.7083 111.907 85.525C111.623 85.3417 111.215 85.0917 110.682 84.775C110.598 84.725 110.582 84.675 110.632 84.625L111.857 82.8ZM116.867 62C116.934 61.8833 116.992 61.8333 117.042 61.85C117.126 61.85 117.192 62.025 117.242 62.375C117.542 64.9583 117.742 67.1667 117.842 69C117.926 70.7333 117.992 72.125 118.042 73.175C118.109 74.225 118.151 74.9333 118.167 75.3C118.284 76.8333 119.117 77.65 120.667 77.75C121.117 77.7833 121.292 78.0833 121.192 78.65C121.042 79.55 120.867 80 120.667 80C118.484 80 117.317 78.9833 117.167 76.95C117.101 76.1 117.042 75.25 116.992 74.4C116.959 73.5333 116.926 72.6667 116.892 71.8C116.842 70.0667 116.742 68.6667 116.592 67.6C116.442 66.5167 116.242 65.2917 115.992 63.925C115.942 63.675 115.967 63.4667 116.067 63.3L116.867 62ZM123.855 75.95C123.955 75.75 124.072 75.625 124.205 75.575C124.339 75.525 124.455 75.5667 124.555 75.7C124.655 75.8333 124.647 76.025 124.53 76.275C124.464 76.3917 124.397 76.5167 124.33 76.65C124.28 76.7833 124.214 76.9167 124.13 77.05C126.147 77.8667 127.555 77.325 128.355 75.425C128.455 75.225 128.564 75.1 128.68 75.05C128.814 75 128.93 75.0333 129.03 75.15C129.13 75.2667 129.139 75.4333 129.055 75.65C128.855 76.1833 128.772 76.5583 128.805 76.775C128.855 77.175 129.164 77.4333 129.73 77.55C130.314 77.6667 130.747 77.5833 131.03 77.3C131.314 77.0167 131.58 76.3417 131.83 75.275C131.847 75.1417 131.947 75.075 132.13 75.075C132.314 75.075 132.43 75.1417 132.48 75.275C133.08 76.825 133.88 77.65 134.88 77.75C135.097 77.7833 135.239 78.0167 135.305 78.45C135.389 78.8833 135.38 79.2417 135.28 79.525C135.18 79.8417 135.047 80 134.88 80C133.514 80 132.514 79.175 131.88 77.525C131.847 77.425 131.805 77.425 131.755 77.525C131.439 78.5583 131.155 79.25 130.905 79.6C130.639 79.95 130.314 80.1417 129.93 80.175C128.747 80.225 127.855 79.7833 127.255 78.85C126.605 79.6167 125.805 80 124.855 80C123.922 80 123.214 79.675 122.73 79.025C122.08 79.675 121.389 80 120.655 80C120.339 80 120.147 79.4417 120.08 78.325C120.064 77.9917 120.255 77.8 120.655 77.75C122.305 77.6333 123.372 77.0333 123.855 75.95ZM135.014 74.55C135.148 74.0167 135.481 73.4917 136.014 72.975C136.581 72.4417 137.173 72.175 137.789 72.175C138.423 72.175 139.873 72.65 142.139 73.6C142.556 73.7667 143.031 73.925 143.564 74.075C144.098 74.2083 144.681 74.3417 145.314 74.475C146.598 74.725 147.914 74.8 149.264 74.7C149.631 74.6833 149.739 74.8333 149.589 75.15L148.889 76.675C148.789 76.875 148.614 76.95 148.364 76.9C146.481 76.5833 144.698 76.675 143.014 77.175C140.948 77.8583 139.298 78.5 138.064 79.1C136.864 79.7 135.798 80 134.864 80C134.764 80 134.681 79.9167 134.614 79.75C134.431 79.25 134.389 78.7917 134.489 78.375C134.589 77.9917 134.714 77.7833 134.864 77.75C136.064 77.6667 137.214 77.475 138.314 77.175C139.414 76.8583 140.473 76.4417 141.489 75.925C139.289 74.6583 137.264 74.3167 135.414 74.9C135.281 74.95 135.173 74.9333 135.089 74.85C135.023 74.7667 134.998 74.6667 135.014 74.55ZM166.246 76.875C166.163 77.125 166.054 77.2917 165.921 77.375C165.304 77.5917 164.604 77.9083 163.821 78.325C163.054 78.7417 162.204 79.2667 161.271 79.9C161.104 80 160.971 80 160.871 79.9C160.838 79.8667 160.821 79.8417 160.821 79.825C160.671 79.525 161.063 78.975 161.996 78.175C160.629 77.675 160.004 77.0167 160.121 76.2C160.188 75.5333 160.704 74.6417 161.671 73.525C162.254 72.875 162.746 72.55 163.146 72.55C163.996 72.55 164.379 73.0167 164.296 73.95C164.279 74.25 164.171 74.5667 163.971 74.9C163.788 75.2167 163.579 75.2583 163.346 75.025C162.596 74.3083 162.054 74.1833 161.721 74.65C161.371 75.1667 161.671 75.65 162.621 76.1C163.204 76.3833 163.871 76.45 164.621 76.3C164.854 76.25 165.113 76.1417 165.396 75.975C165.546 75.8917 165.688 75.825 165.821 75.775C165.954 75.7083 166.071 75.6667 166.171 75.65C166.488 75.6 166.579 75.7917 166.446 76.225L166.246 76.875ZM179.842 77.75C180.109 77.8333 180.276 78.05 180.342 78.4C180.426 78.8 180.417 79.1667 180.317 79.5C180.217 79.8333 180.059 80 179.842 80C178.759 79.9333 178.017 79.025 177.617 77.275C177.551 76.9917 177.501 76.7833 177.467 76.65C177.434 76.5 177.417 76.425 177.417 76.425C177.367 76.2917 177.317 76.3 177.267 76.45C176.734 77.8667 176.067 78.7333 175.267 79.05C174.251 79.4667 172.851 79.6167 171.067 79.5C169.684 79.4 169.326 78.3083 169.992 76.225C170.076 75.975 170.201 75.8417 170.367 75.825C170.534 75.8083 170.651 75.9167 170.717 76.15C170.867 76.6333 171.092 76.9083 171.392 76.975C173.009 77.325 174.467 77.2417 175.767 76.725C176.401 76.475 176.826 76.0083 177.042 75.325C177.059 75.225 176.942 74.3333 176.692 72.65C176.576 71.8167 176.484 71.1417 176.417 70.625C176.351 70.0917 176.301 69.7333 176.267 69.55C176.217 69.1833 176.242 68.9 176.342 68.7C176.476 68.4167 176.592 68.175 176.692 67.975C176.792 67.7583 176.867 67.5833 176.917 67.45C176.967 67.3167 177.051 67.2583 177.167 67.275C177.301 67.3083 177.376 67.3917 177.392 67.525C177.592 69.275 177.801 70.85 178.017 72.25C178.251 73.6333 178.484 74.8417 178.717 75.875C178.967 77.0083 179.342 77.6333 179.842 77.75ZM185.935 77.75C186.235 77.8333 186.393 77.925 186.41 78.025C186.443 78.1583 186.443 78.3583 186.41 78.625C186.293 79.5417 186.135 80 185.935 80C185.035 80 184.135 79.4917 183.235 78.475C182.468 79.3917 181.335 79.9 179.835 80C179.668 80 179.56 79.875 179.51 79.625L179.31 78.575C179.26 78.425 179.293 78.25 179.41 78.05C179.51 77.8833 179.652 77.7833 179.835 77.75C181.668 77.6 182.902 77.05 183.535 76.1C183.618 75.9667 183.735 75.9 183.885 75.9C184.035 75.9 184.11 75.975 184.11 76.125C184.11 76.2583 184.127 76.3583 184.16 76.425C184.71 77.175 185.302 77.6167 185.935 77.75ZM182.61 82.8C182.643 82.75 182.71 82.7333 182.81 82.75C183.477 82.9833 184.068 83.3333 184.585 83.8C184.652 83.8667 184.66 83.9333 184.61 84L183.435 85.9C183.385 85.9833 183.302 85.975 183.185 85.875C183.118 85.825 182.943 85.7083 182.66 85.525C182.377 85.3417 181.968 85.0917 181.435 84.775C181.352 84.725 181.335 84.675 181.385 84.625L182.61 82.8ZM186.338 63.5C186.588 62.9 186.738 62.525 186.788 62.375C186.838 62.225 186.922 62.15 187.038 62.15C187.172 62.15 187.263 62.2333 187.313 62.4C187.563 63.15 187.922 63.7583 188.388 64.225C188.555 64.375 188.547 64.5667 188.363 64.8L187.813 65.575C187.863 66.0417 187.913 66.4917 187.963 66.925C188.013 67.3583 188.063 67.775 188.113 68.175C188.663 72.325 188.855 74.8417 188.688 75.725C188.155 78.375 187.238 79.8 185.938 80C185.905 80 185.872 80 185.838 80C185.605 79.9333 185.513 79.3833 185.563 78.35C185.563 77.9667 185.688 77.7667 185.938 77.75C186.855 77.65 187.488 77.275 187.838 76.625C187.822 75.975 187.755 75.1333 187.638 74.1C187.538 73.0667 187.397 71.8583 187.213 70.475C187.047 69.0917 186.905 67.975 186.788 67.125C186.672 66.275 186.597 65.6917 186.563 65.375L186.313 63.95C186.297 63.75 186.305 63.6 186.338 63.5ZM204.008 69.025C204.225 68.725 204.358 68.7917 204.408 69.225C204.425 69.3917 204.467 69.7167 204.533 70.2C204.6 70.6833 204.683 71.3417 204.783 72.175C204.883 72.9917 204.958 73.65 205.008 74.15C205.075 74.6333 205.117 74.95 205.133 75.1C205.267 76.45 205.55 77.2583 205.983 77.525C206.233 77.7083 206.6 77.7833 207.083 77.75C207.383 77.75 207.558 77.925 207.608 78.275C207.658 78.6417 207.625 79.0167 207.508 79.4C207.392 79.7667 207.25 79.9667 207.083 80C206.15 80.0667 205.458 79.8333 205.008 79.3C204.542 78.7333 204.225 77.7417 204.058 76.325C203.592 77.2083 203.108 77.75 202.608 77.95C202.242 78.0833 201.733 78.0917 201.083 77.975C200.383 77.8417 199.892 77.6583 199.608 77.425C199.292 77.1583 199.158 76.8667 199.208 76.55C199.258 76.1833 199.417 75.7333 199.683 75.2C199.967 74.6333 200.183 74.275 200.333 74.125C201.217 73.275 202.267 72.525 203.483 71.875C203.433 71.1917 203.408 70.6833 203.408 70.35C203.408 70.0167 203.483 69.75 203.633 69.55L204.008 69.025ZM203.658 73.4C202.358 73.7667 201.425 74.325 200.858 75.075C200.792 75.175 200.817 75.2583 200.933 75.325C201.267 75.4917 201.658 75.5917 202.108 75.625C202.558 75.6417 203.067 75.5917 203.633 75.475C203.717 75.4583 203.808 75.4 203.908 75.3C203.892 75.0333 203.858 74.7417 203.808 74.425C203.775 74.1083 203.725 73.7667 203.658 73.4ZM201.908 64.725C201.942 64.675 202.008 64.6583 202.108 64.675C202.392 64.7917 202.667 64.925 202.933 65.075C203.2 65.225 203.45 65.4 203.683 65.6C203.75 65.6667 203.758 65.7333 203.708 65.8L202.633 67.525C202.6 67.575 202.533 67.5583 202.433 67.475C202.383 67.425 202.25 67.3417 202.033 67.225C201.833 67.0917 201.542 66.9167 201.158 66.7L200.308 68.025C200.258 68.0917 200.183 68.0833 200.083 68C200.017 67.95 199.85 67.8417 199.583 67.675C199.333 67.5083 198.975 67.2833 198.508 67C198.442 66.9667 198.433 66.925 198.483 66.875L199.583 65.225C199.617 65.175 199.675 65.1583 199.758 65.175C200.008 65.2583 200.242 65.3667 200.458 65.5C200.692 65.6333 200.908 65.775 201.108 65.925L201.908 64.725ZM211.781 78.075C211.431 78.7417 211.098 78.9833 210.781 78.8C210.748 78.7833 210.673 78.7333 210.556 78.65C210.439 78.55 210.264 78.4167 210.031 78.25C209.014 79.4 208.031 79.9833 207.081 80C206.731 80 206.506 79.6333 206.406 78.9C206.306 78.1833 206.531 77.7917 207.081 77.725C208.548 77.5583 209.589 77.0667 210.206 76.25C210.373 76.0333 210.589 76.025 210.856 76.225C210.889 76.2417 210.948 76.2917 211.031 76.375C211.114 76.4417 211.223 76.5417 211.356 76.675C211.906 77.1417 212.048 77.6083 211.781 78.075ZM210.456 81.3C210.489 81.25 210.556 81.2333 210.656 81.25C210.939 81.3667 211.214 81.5 211.481 81.65C211.748 81.8 211.998 81.975 212.231 82.175C212.298 82.2417 212.306 82.3083 212.256 82.375L211.181 84.1C211.148 84.15 211.081 84.1333 210.981 84.05C210.931 84 210.798 83.9083 210.581 83.775C210.381 83.6583 210.089 83.4917 209.706 83.275L208.856 84.6C208.806 84.6667 208.731 84.6583 208.631 84.575C208.564 84.525 208.398 84.4167 208.131 84.25C207.881 84.0833 207.523 83.8583 207.056 83.575C206.989 83.5417 206.981 83.5 207.031 83.45L208.131 81.8C208.164 81.75 208.223 81.7333 208.306 81.75C208.556 81.8333 208.789 81.9417 209.006 82.075C209.239 82.2083 209.456 82.35 209.656 82.5L210.456 81.3ZM210.68 78.7C210.23 78.4 210.13 77.925 210.38 77.275C210.747 76.625 211.055 76.4 211.305 76.6C212.555 77.55 213.805 78.0083 215.055 77.975C215.105 77.975 215.13 77.9417 215.13 77.875C215.13 77.7917 215.005 77.6 214.755 77.3C214.705 77.2167 214.689 77.1333 214.705 77.05L215.305 75.325C215.339 75.225 215.389 75.175 215.455 75.175C215.522 75.175 215.572 75.2167 215.605 75.3C215.905 76.05 216.005 76.7917 215.905 77.525C215.772 78.525 215.522 79.1833 215.155 79.5C214.889 79.75 214.664 79.8833 214.48 79.9C213.414 80.0667 212.147 79.6667 210.68 78.7ZM213.68 82.925C213.714 82.875 213.78 82.8583 213.88 82.875C214.547 83.1083 215.139 83.4583 215.655 83.925C215.722 83.9917 215.73 84.0583 215.68 84.125L214.505 86.025C214.455 86.1083 214.372 86.1 214.255 86C214.189 85.95 214.014 85.8333 213.73 85.65C213.447 85.4667 213.039 85.2167 212.505 84.9C212.422 84.85 212.405 84.8 212.455 84.75L213.68 82.925ZM219.382 62C219.449 61.8833 219.507 61.8333 219.557 61.85C219.64 61.85 219.707 62.025 219.757 62.375C220.057 64.9583 220.257 67.1667 220.357 69C220.44 70.7333 220.507 72.125 220.557 73.175C220.624 74.225 220.665 74.9333 220.682 75.3C220.799 76.8333 221.632 77.65 223.182 77.75C223.632 77.7833 223.807 78.0833 223.707 78.65C223.557 79.55 223.382 80 223.182 80C220.999 80 219.832 78.9833 219.682 76.95C219.615 76.1 219.557 75.25 219.507 74.4C219.474 73.5333 219.44 72.6667 219.407 71.8C219.357 70.0667 219.257 68.6667 219.107 67.6C218.957 66.5167 218.757 65.2917 218.507 63.925C218.457 63.675 218.482 63.4667 218.582 63.3L219.382 62ZM229.27 77.75C229.57 77.8333 229.728 77.925 229.745 78.025C229.778 78.1583 229.778 78.3583 229.745 78.625C229.628 79.5417 229.47 80 229.27 80C228.37 80 227.47 79.4917 226.57 78.475C225.803 79.3917 224.67 79.9 223.17 80C223.003 80 222.895 79.875 222.845 79.625L222.645 78.575C222.595 78.425 222.628 78.25 222.745 78.05C222.845 77.8833 222.987 77.7833 223.17 77.75C225.003 77.6 226.237 77.05 226.87 76.1C226.953 75.9667 227.07 75.9 227.22 75.9C227.37 75.9 227.445 75.975 227.445 76.125C227.445 76.2583 227.462 76.3583 227.495 76.425C228.045 77.175 228.637 77.6167 229.27 77.75ZM226.745 69.125C226.778 69.075 226.845 69.0583 226.945 69.075C227.228 69.1917 227.503 69.325 227.77 69.475C228.037 69.625 228.287 69.8 228.52 70C228.587 70.0667 228.595 70.1333 228.545 70.2L227.47 71.925C227.437 71.975 227.37 71.9583 227.27 71.875C227.22 71.825 227.087 71.7417 226.87 71.625C226.67 71.4917 226.378 71.3167 225.995 71.1L225.145 72.425C225.095 72.4917 225.02 72.4833 224.92 72.4C224.853 72.35 224.687 72.2417 224.42 72.075C224.17 71.9083 223.812 71.6833 223.345 71.4C223.278 71.3667 223.27 71.325 223.32 71.275L224.42 69.625C224.453 69.575 224.512 69.5583 224.595 69.575C224.845 69.6583 225.078 69.7667 225.295 69.9C225.528 70.0333 225.745 70.175 225.945 70.325L226.745 69.125ZM229.673 63.5C229.923 62.9 230.073 62.525 230.123 62.375C230.173 62.225 230.257 62.15 230.373 62.15C230.507 62.15 230.598 62.2333 230.648 62.4C230.898 63.15 231.257 63.7583 231.723 64.225C231.89 64.375 231.882 64.5667 231.698 64.8L231.148 65.575C231.198 66.0417 231.248 66.4917 231.298 66.925C231.348 67.3583 231.398 67.775 231.448 68.175C231.998 72.325 232.19 74.8417 232.023 75.725C231.49 78.375 230.573 79.8 229.273 80C229.24 80 229.207 80 229.173 80C228.94 79.9333 228.848 79.3833 228.898 78.35C228.898 77.9667 229.023 77.7667 229.273 77.75C230.19 77.65 230.823 77.275 231.173 76.625C231.157 75.975 231.09 75.1333 230.973 74.1C230.873 73.0667 230.732 71.8583 230.548 70.475C230.382 69.0917 230.24 67.975 230.123 67.125C230.007 66.275 229.932 65.6917 229.898 65.375L229.648 63.95C229.632 63.75 229.64 63.6 229.673 63.5ZM235.869 63.25C236.219 62.4333 236.444 62.4167 236.544 63.2L237.119 69.325C237.752 74.8417 237.677 78.3417 236.894 79.825C236.777 80.025 236.685 80.075 236.619 79.975C236.552 79.8917 236.519 79.75 236.519 79.55C236.552 78.15 236.452 76.575 236.219 74.825C236.219 74.7583 236.044 73.175 235.694 70.075L235.144 65.55C235.11 65.2167 235.144 64.9333 235.244 64.7L235.869 63.25Z" fill="black"/>
</svg>
