<svg width="233" height="112" viewBox="0 0 233 112" fill="none" xmlns="http://www.w3.org/2000/svg">
<path d="M42.9688 81.0703H36.9922L34.1406 75.9922H32.1875C34.1146 78.7266 35.0781 81.1615 35.0781 83.2969C35.0781 86.526 33.9193 89.2734 31.6016 91.5391C29.3099 93.8047 26.5495 94.9375 23.3203 94.9375C21.3932 94.9375 19.7005 94.5078 18.2422 93.6484C17.3828 93.1536 16.0286 92.0469 14.1797 90.3281C10.9245 87.3073 9.11458 85.5755 8.75 85.1328C7.26562 83.2057 6.52344 80.875 6.52344 78.1406C6.52344 75.8229 7.30469 73.2839 8.86719 70.5234C10.2995 68.2057 11.7448 65.901 13.2031 63.6094C10.9635 59.9375 9.80469 58.0104 9.72656 57.8281C8.58073 55.5885 8.00781 53.4531 8.00781 51.4219C8.00781 48.6875 9.33594 46.2135 11.9922 44C12.513 43.5833 15 41.9948 19.4531 39.2344L23.3203 46.1094C24.1536 44.7031 24.5703 43.4141 24.5703 42.2422C24.5703 39.3255 24.2578 37.3724 23.6328 36.3828L23.2031 36.2656C20.651 36.2656 18.2031 37.1771 15.8594 39C15 39.6771 13.2943 41.3958 10.7422 44.1562C8.9974 46.0312 7.59115 46.9948 6.52344 47.0469C2.66927 43.2969 0.742188 41.0964 0.742188 40.4453C0.742188 39.5599 1.11979 38.8438 1.875 38.2969C4.375 31.2396 8.24219 26.3438 13.4766 23.6094C13.3724 22.75 13.3203 21.9036 13.3203 21.0703C13.3203 19.7682 13.6849 18.6484 14.4141 17.7109C14.6484 17.4245 15.5078 16.6042 16.9922 15.25L14.8438 12.9453C14.1146 11.9818 13.75 11.0182 13.75 10.0547C13.75 8.72656 14.1667 7.61979 15 6.73438C15.8594 5.84896 16.9531 5.40625 18.2812 5.40625C19.4271 5.40625 20.2474 5.67969 20.7422 6.22656L28.125 14.5078L28.5547 15.7578L25.9766 23.7266C27.9036 25.1849 29.375 26.8385 30.3906 28.6875C35.8854 31.9167 38.6328 38.375 38.6328 48.0625C38.6328 51.0312 36.9531 55.0286 33.5938 60.0547C34.2969 61.4349 35.4818 63.5964 37.1484 66.5391L37.3438 66.6953H42.7734V68.6875H34.5312L34.1797 68.4922L26.1719 54.8984C28.5677 50.8099 29.8047 48.7005 29.8828 48.5703C31.0807 46.0964 31.6797 43.7526 31.6797 41.5391C31.6797 38.8307 31.1849 35.9531 30.1953 32.9062C28.9974 29.2604 27.4479 26.9297 25.5469 25.9141L21.3281 23.7266C19.401 22.5807 18.4375 21.5521 18.4375 20.6406C18.4375 20.4583 18.9062 19.1042 19.8438 16.5781C20.4688 14.8854 20.9505 12.6328 21.2891 9.82031C20.8724 9.22135 20.1432 8.4401 19.1016 7.47656L18.2812 7.39844C16.5625 7.39844 15.7031 8.21875 15.7031 9.85938C15.7031 11.0573 16.1849 11.8516 17.1484 12.2422L20.1172 12.9453L20.0781 13.375L19.7656 13.9609C19.7656 14.9766 18.4896 16.6562 15.9375 19C15.4948 20.1458 15.2734 21.0964 15.2734 21.8516C15.2734 22.5807 15.4557 23.5182 15.8203 24.6641C13.5026 25.7318 11.0026 27.776 8.32031 30.7969C5.79427 33.6615 3.98438 36.3568 2.89062 38.8828C6.53646 35.0807 8.89323 32.8151 9.96094 32.0859C12.4609 30.3411 15.5599 29.4688 19.2578 29.4688C21.5755 29.4688 23.4635 31.1354 24.9219 34.4688C26.0677 37.125 26.6406 39.8073 26.6406 42.5156C26.6406 44.026 25.5729 46.5521 23.4375 50.0938L18.75 42.0859C15.3906 44.1172 13.4245 45.3932 12.8516 45.9141C10.9505 47.5807 10 49.612 10 52.0078C10 53.7266 10.6901 55.7708 12.0703 58.1406C13.2161 59.9635 14.375 61.7865 15.5469 63.6094L9.49219 73.8438C8.8151 74.9896 8.47656 76.5 8.47656 78.375C8.47656 80.9792 9.4401 83.2188 11.3672 85.0938C13.3203 86.9688 15.599 87.9062 18.2031 87.9062C20.9115 87.9062 23.2161 86.9688 25.1172 85.0938C27.0443 83.2188 28.0078 80.9271 28.0078 78.2188C28.0078 76.526 27.0052 74.0391 25 70.7578L20.625 64.1172L24.2969 57.7109L33.0859 74H42.9688V81.0703ZM21.6797 52.9453L17.7344 60.2109C15.5208 55.9401 14.4271 53.3099 14.4531 52.3203L14.4922 51.1094C14.7786 50.6406 16.1458 49.3906 18.5938 47.3594L21.6797 52.9453ZM23.4375 78.1406C23.4375 79.5208 22.9167 80.7057 21.875 81.6953C20.8333 82.7109 19.6224 83.2188 18.2422 83.2188C16.8099 83.2188 15.5859 82.724 14.5703 81.7344C13.5807 80.7708 13.0859 79.5729 13.0859 78.1406C13.0859 76.7604 13.75 74.9766 15.0781 72.7891C16.1458 71.1484 17.2135 69.5208 18.2812 67.9062C19.3229 69.5208 20.3646 71.1484 21.4062 72.7891C22.7604 75.0807 23.4375 76.8646 23.4375 78.1406ZM33.3594 106.227C33.3594 104.924 32.9167 103.818 32.0312 102.906C31.0156 101.76 30 100.628 28.9844 99.5078C27.7865 98.362 26.4844 97.7891 25.0781 97.7891C23.5417 97.7891 22.2135 98.2708 21.0938 99.2344C19.974 100.224 19.4141 101.474 19.4141 102.984C19.4141 104.677 20.4297 106.474 22.4609 108.375C24.4922 110.276 26.3672 111.227 28.0859 111.227C30.3255 111.227 31.8099 110.458 32.5391 108.922C33.0859 108.427 33.3594 107.529 33.3594 106.227ZM21.6406 105.992C21.6406 107.294 21.3672 108.193 20.8203 108.688C20.0911 110.224 18.6068 110.992 16.3672 110.992C14.6484 110.992 12.7734 110.042 10.7422 108.141C8.71094 106.24 7.69531 104.443 7.69531 102.75C7.69531 101.24 8.25521 99.9896 9.375 99C10.4948 98.0365 11.8229 97.5547 13.3594 97.5547C14.7656 97.5547 16.0677 98.1276 17.2656 99.2734C18.2812 100.393 19.2969 101.526 20.3125 102.672C21.1979 103.583 21.6406 104.69 21.6406 105.992ZM21.9141 78.375C21.9141 77.8021 21.7448 77.2552 21.4062 76.7344L18.6719 81.5C20.8333 81.5 21.9141 80.4583 21.9141 78.375ZM28.6328 103.062C28.6328 101.995 28.2552 101.096 27.5 100.367C26.7448 99.638 25.8333 99.2734 24.7656 99.2734C23.724 99.2734 22.8385 99.638 22.1094 100.367C21.4062 101.096 21.0547 101.982 21.0547 103.023C21.0547 104.091 21.4193 104.99 22.1484 105.719C22.8776 106.448 23.776 106.812 24.8438 106.812C25.8333 106.812 26.7057 106.435 27.4609 105.68C28.2422 104.924 28.6328 104.052 28.6328 103.062ZM16.9141 102.828C16.9141 101.76 16.5365 100.862 15.7812 100.133C15.026 99.4036 14.1146 99.0391 13.0469 99.0391C12.0052 99.0391 11.1198 99.4036 10.3906 100.133C9.6875 100.862 9.33594 101.747 9.33594 102.789C9.33594 103.857 9.70052 104.755 10.4297 105.484C11.1589 106.214 12.0573 106.578 13.125 106.578C14.1146 106.578 14.987 106.201 15.7422 105.445C16.5234 104.69 16.9141 103.818 16.9141 102.828ZM67.9297 68.6875H54.5312L54.4922 15.7188C54.4922 14.026 55.1693 12.9844 56.5234 12.5938L50.5469 7.94531L49.5312 5.95312V68.6875H39.7266V66.6953H47.5391V3.96094C47.5391 1.51302 47.8385 0.289062 48.4375 0.289062C49.0885 0.731771 50.4167 2.33333 52.4219 5.09375C54.6615 8.16667 56.0417 9.96354 56.5625 10.4844C57.6042 11.526 59.1667 12.8411 61.25 14.4297C63.8802 16.3828 65.5208 17.6458 66.1719 18.2188C65.7552 18.5312 65.1302 18.9219 64.2969 19.3906C63.2292 19.4167 62.6302 19.4427 62.5 19.4688C61.875 19.625 61.5625 20.0677 61.5625 20.7969V66.6953H67.9297V68.6875ZM67.9297 81.0703H39.7266V74H67.9297V81.0703ZM92.8906 68.6875H81.7578C81.7318 62.75 81.7708 56.5911 81.875 50.2109C81.7969 51.3828 81.0417 52.6589 79.6094 54.0391C78.4896 55.1328 77.3698 56.2135 76.25 57.2812C76.276 57.4896 76.3672 57.9062 76.5234 58.5312C76.6536 59.0521 76.7188 59.4557 76.7188 59.7422V68.6875H64.3359V66.6953H74.7266V59.7422C74.7266 59.0651 74.2578 58.4792 73.3203 57.9844C72.4089 57.4896 71.9531 57.0078 71.9531 56.5391L72.1484 56.1094L75.6641 54.625C76.9922 53.974 77.9557 53.2057 78.5547 52.3203C78.8932 51.8255 79.4531 50.5495 80.2344 48.4922C80.8854 46.7995 81.3932 45.901 81.7578 45.7969C82.2005 45.7969 82.5911 46.0703 82.9297 46.6172L83.7109 47.9062L86.7578 50.4844C88.1901 51.7865 88.9062 52.75 88.9062 53.375V66.6953H92.8906V68.6875ZM93.0859 81.0703H64.3359V74H93.0859V81.0703ZM86.3672 100.68C86.3672 101.982 86.0938 102.88 85.5469 103.375C84.8177 104.911 83.3333 105.68 81.0938 105.68C79.375 105.68 77.5 104.729 75.4688 102.828C73.4375 100.927 72.4219 99.1302 72.4219 97.4375C72.4219 95.9271 72.9818 94.6771 74.1016 93.6875C75.2214 92.724 76.5495 92.2422 78.0859 92.2422C79.4922 92.2422 80.7943 92.8151 81.9922 93.9609C83.0078 95.0807 84.0234 96.2135 85.0391 97.3594C85.9245 98.2708 86.3672 99.3776 86.3672 100.68ZM81.6406 97.5156C81.6406 96.4479 81.263 95.5495 80.5078 94.8203C79.7526 94.0911 78.8411 93.7266 77.7734 93.7266C76.7318 93.7266 75.8464 94.0911 75.1172 94.8203C74.4141 95.5495 74.0625 96.4349 74.0625 97.4766C74.0625 98.5443 74.4271 99.4427 75.1562 100.172C75.8854 100.901 76.7839 101.266 77.8516 101.266C78.8672 101.266 79.7526 100.888 80.5078 100.133C81.263 99.4036 81.6406 98.5312 81.6406 97.5156ZM118.008 25.5234C118.008 24.2214 117.565 23.1146 116.68 22.2031C115.664 21.0573 114.648 19.9245 113.633 18.8047C112.435 17.6589 111.133 17.0859 109.727 17.0859C108.216 17.0859 106.914 17.5677 105.82 18.5312C104.648 19.5469 104.062 20.7969 104.062 22.2812C104.062 23.974 105.078 25.7708 107.109 27.6719C109.141 29.5729 111.016 30.5234 112.734 30.5234C114.193 30.5234 115.43 30.0547 116.445 29.1172C117.487 28.1536 118.008 26.9557 118.008 25.5234ZM107.461 25.2891C107.461 26.7214 106.94 27.9193 105.898 28.8828C104.883 29.8203 103.646 30.2891 102.188 30.2891C100.469 30.2891 98.5938 29.3385 96.5625 27.4375C94.5312 25.5365 93.5156 23.7396 93.5156 22.0469C93.5156 20.5625 94.1016 19.3125 95.2734 18.2969C96.3672 17.3333 97.6693 16.8516 99.1797 16.8516C100.586 16.8516 101.888 17.4245 103.086 18.5703C104.102 19.6901 105.117 20.8229 106.133 21.9688C107.018 22.8802 107.461 23.987 107.461 25.2891ZM123.125 68.6875H113.789V41.7344C113.008 42.4896 112.188 43.0625 111.328 43.4531C110.938 43.6354 109.922 43.8438 108.281 44.0781C105.391 44.4948 102.786 45.5625 100.469 47.2812C97.7604 49.2865 96.4062 51.6042 96.4062 54.2344V61.4609H108.672V68.6875H91.2891V66.6953H98.8672L94.375 63.4531V54.2344C94.375 50.7708 96.2109 47.8802 99.8828 45.5625C102.617 43.8698 106.029 42.6198 110.117 41.8125C110.977 41.6562 112.018 40.888 113.242 39.5078C114.076 38.4661 114.922 37.4245 115.781 36.3828L120.898 41.7734V66.6953H123.125V68.6875ZM108.672 56.6172H100.391C100.391 53.7526 101.068 51.7344 102.422 50.5625C103.672 49.4948 105.755 48.9609 108.672 48.9609V56.6172ZM123.125 81.0703H91.2891V74H123.125V81.0703ZM113.281 22.3594C113.281 23.349 112.891 24.2214 112.109 24.9766C111.354 25.7318 110.482 26.1094 109.492 26.1094C108.424 26.1094 107.526 25.7448 106.797 25.0156C106.068 24.2865 105.703 23.388 105.703 22.3203C105.703 21.2786 106.055 20.3932 106.758 19.6641C107.487 18.9349 108.372 18.5703 109.414 18.5703C110.482 18.5703 111.393 18.9349 112.148 19.6641C112.904 20.3932 113.281 21.2917 113.281 22.3594ZM102.734 22.125C102.734 21.0573 102.357 20.1589 101.602 19.4297C100.846 18.7005 99.9349 18.3359 98.8672 18.3359C97.8255 18.3359 96.9401 18.7005 96.2109 19.4297C95.5078 20.1589 95.1562 21.0443 95.1562 22.0859C95.1562 23.1536 95.5208 24.0521 96.25 24.7812C96.9792 25.5104 97.8776 25.875 98.9453 25.875C99.9349 25.875 100.807 25.4974 101.562 24.7422C102.344 23.987 102.734 23.1146 102.734 22.125ZM106.68 54.625V50.9531C103.815 50.9531 102.383 52.1771 102.383 54.625H106.68ZM150.43 31.4609C150.43 30.1589 149.987 29.0521 149.102 28.1406C148.086 26.9948 147.07 25.862 146.055 24.7422C144.857 23.5964 143.555 23.0234 142.148 23.0234C140.638 23.0234 139.336 23.5052 138.242 24.4688C137.07 25.4844 136.484 26.7344 136.484 28.2188C136.484 29.9115 137.5 31.7083 139.531 33.6094C141.562 35.5104 143.438 36.4609 145.156 36.4609C146.589 36.4609 147.826 35.9922 148.867 35.0547C149.909 34.0911 150.43 32.8932 150.43 31.4609ZM138.711 31.2266C138.711 32.6589 138.19 33.8568 137.148 34.8203C136.107 35.7578 134.87 36.2266 133.438 36.2266C131.719 36.2266 129.844 35.276 127.812 33.375C125.781 31.474 124.766 29.6771 124.766 27.9844C124.766 26.5 125.352 25.25 126.523 24.2344C127.617 23.2708 128.919 22.7891 130.43 22.7891C131.836 22.7891 133.138 23.362 134.336 24.5078C135.352 25.6276 136.367 26.7604 137.383 27.9062C138.268 28.8177 138.711 29.9245 138.711 31.2266ZM149.609 68.6875H138.477C138.451 62.75 138.49 56.5911 138.594 50.2109C138.516 51.3828 137.76 52.6589 136.328 54.0391C135.208 55.1328 134.089 56.2135 132.969 57.2812C132.995 57.4896 133.086 57.9062 133.242 58.5312C133.372 59.0521 133.438 59.4557 133.438 59.7422V68.6875H121.055V66.6953H131.445V59.7422C131.445 59.0651 130.977 58.4792 130.039 57.9844C129.128 57.4896 128.672 57.0078 128.672 56.5391L128.867 56.1094L132.383 54.625C133.711 53.974 134.674 53.2057 135.273 52.3203C135.612 51.8255 136.172 50.5495 136.953 48.4922C137.604 46.7995 138.112 45.901 138.477 45.7969C138.919 45.7969 139.31 46.0703 139.648 46.6172L140.43 47.9062L143.477 50.4844C144.909 51.7865 145.625 52.75 145.625 53.375V66.6953H149.609V68.6875ZM149.805 81.0703H121.055V74H149.805V81.0703ZM145.703 28.2969C145.703 27.2292 145.326 26.3307 144.57 25.6016C143.815 24.8724 142.904 24.5078 141.836 24.5078C140.794 24.5078 139.909 24.8724 139.18 25.6016C138.477 26.3307 138.125 27.2161 138.125 28.2578C138.125 29.3255 138.49 30.224 139.219 30.9531C139.948 31.6823 140.846 32.0469 141.914 32.0469C142.93 32.0469 143.815 31.6823 144.57 30.9531C145.326 30.1979 145.703 29.3125 145.703 28.2969ZM133.984 28.0625C133.984 26.9948 133.607 26.0964 132.852 25.3672C132.096 24.638 131.185 24.2734 130.117 24.2734C129.076 24.2734 128.19 24.638 127.461 25.3672C126.758 26.0964 126.406 26.9818 126.406 28.0234C126.406 29.0911 126.771 29.9896 127.5 30.7188C128.229 31.4479 129.128 31.8125 130.195 31.8125C131.211 31.8125 132.096 31.4479 132.852 30.7188C133.607 29.9635 133.984 29.0781 133.984 28.0625ZM203.789 68.6875H193.594V46.0312C192.266 47.9062 189.909 49.4557 186.523 50.6797C186.94 50.9401 187.318 51.2266 187.656 51.5391L188.359 53.5312V68.6875H181.328V48.8438C180.078 50.3021 179.01 51.3047 178.125 51.8516C177.526 52.2422 176.198 52.8411 174.141 53.6484C174.87 53.8568 175.56 54.7812 176.211 56.4219L176.289 68.6875H169.141V51.8125C167.526 53.8177 165.117 55.4062 161.914 56.5781C163.294 56.9167 163.984 57.8932 163.984 59.5078V68.6875H148.008V66.6953H162.031V59.6641C162.031 59.3776 161.927 59.0651 161.719 58.7266L160.195 58.0625L159.766 55.1328C162.786 54.3255 165.078 53.1146 166.641 51.5C168.359 49.7292 169.388 48.7786 169.727 48.6484C170.586 48.6484 171.068 49.9375 171.172 52.5156L171.133 52.0078V52.2422L171.094 53.2969L171.055 57.3594C171.654 56.9427 172.266 56.3177 172.891 55.4844L172.383 55.2109L171.992 52.2031C176.055 51.1615 178.724 49.5078 180 47.2422C180.599 46.1484 181.172 45.6016 181.719 45.6016C182.057 45.7839 182.383 46.0182 182.695 46.3047L183.281 47.7109L183.242 54.4297C183.867 54.013 184.492 53.401 185.117 52.5938L184.609 52.3203L184.219 49.3516C186.693 48.5182 188.398 47.7891 189.336 47.1641C190.299 46.5391 191.602 45.263 193.242 43.3359L194.141 43.0625C198.516 47.151 200.703 49.4167 200.703 49.8594V66.6953H203.789V68.6875ZM203.789 81.0703H148.008V74H203.789V81.0703ZM220.781 68.6875H211.68C211.836 65.4844 212.578 63.2448 213.906 61.9688C215.26 60.6667 217.552 60.0156 220.781 60.0156V68.6875ZM232.656 81.0703H202.07V74H225.586V54.2344H225.352C224.57 54.8854 222.812 55.3021 220.078 55.4844C216.51 55.7188 213.516 57.0859 211.094 59.5859C208.698 62.0859 207.5 65.1198 207.5 68.6875H202.07V66.6953H205.703C206.068 63.1536 207.669 60.0677 210.508 57.4375C213.346 54.7812 216.536 53.4531 220.078 53.4531C223.151 53.4531 225.469 52.9974 227.031 52.0859L232.656 57.5938V81.0703Z" fill="black"/>
</svg>
