<svg width="190" height="31" viewBox="0 0 190 31" fill="none" xmlns="http://www.w3.org/2000/svg">
<path d="M23.5773 23C22.4613 23 21.5253 22.883 20.7693 22.649C20.0313 22.397 19.3923 21.965 18.8523 21.353C18.3123 20.741 17.7813 19.904 17.2593 18.842L14.2353 12.47L17.3403 14.873C16.7463 14.963 16.1883 15.053 15.6663 15.143C15.1443 15.233 14.7213 15.395 14.3973 15.629C14.0733 15.845 13.9113 16.214 13.9113 16.736C13.9113 17.096 14.0103 17.492 14.2083 17.924C14.4063 18.338 14.6493 18.77 14.9373 19.22C15.2253 19.652 15.5133 20.093 15.8013 20.543C16.0893 20.975 16.3323 21.416 16.5303 21.866C16.7283 22.298 16.8273 22.712 16.8273 23.108C16.8273 24.44 16.4403 25.637 15.6663 26.699C14.8923 27.761 13.8303 28.598 12.4803 29.21C11.1483 29.822 9.6273 30.128 7.9173 30.128C6.4773 30.128 5.2173 30.02 4.1373 29.804C3.0573 29.588 2.2203 29.372 1.6263 29.156C1.0323 28.94 0.735301 28.832 0.735301 28.832L2.1393 24.08H2.4633C2.6613 24.134 3.0213 24.242 3.5433 24.404C4.0833 24.584 4.7583 24.755 5.5683 24.917C6.3783 25.079 7.2693 25.16 8.2413 25.16C9.4113 25.16 10.4193 25.016 11.2653 24.728C12.1293 24.458 12.8403 24.188 13.3983 23.918L13.5603 25.943C12.8763 25.079 12.2193 24.278 11.5893 23.54C10.9593 22.82 10.3923 22.127 9.8883 21.461C9.4023 20.795 9.0153 20.129 8.7273 19.463C8.4393 18.779 8.2953 18.05 8.2953 17.276C8.2953 16.052 8.5653 14.999 9.1053 14.117C9.6633 13.217 10.4103 12.461 11.3463 11.849C12.2823 11.219 13.3263 10.706 14.4783 10.31C15.6303 9.896 16.8093 9.554 18.0153 9.284L18.5553 9.608L20.9043 14.684C21.3363 15.602 21.7053 16.322 22.0113 16.844C22.3353 17.366 22.6503 17.735 22.9563 17.951C23.2803 18.149 23.6673 18.248 24.1173 18.248V22.46L23.5773 23ZM4.1643 17.735C3.4983 17.735 2.9223 17.528 2.4363 17.114C1.9683 16.682 1.7343 16.07 1.7343 15.278C1.7343 14.504 1.9683 13.91 2.4363 13.496C2.9223 13.082 3.4983 12.875 4.1643 12.875C4.8483 12.875 5.4243 13.082 5.8923 13.496C6.3603 13.91 6.5943 14.504 6.5943 15.278C6.5943 16.07 6.3603 16.682 5.8923 17.114C5.4243 17.528 4.8483 17.735 4.1643 17.735ZM4.1373 23.378C3.4713 23.378 2.8953 23.171 2.4093 22.757C1.9413 22.325 1.7073 21.713 1.7073 20.921C1.7073 20.147 1.9413 19.553 2.4093 19.139C2.8953 18.725 3.4713 18.518 4.1373 18.518C4.8213 18.518 5.3973 18.725 5.8653 19.139C6.3333 19.553 6.5673 20.147 6.5673 20.921C6.5673 21.713 6.3333 22.325 5.8653 22.757C5.3973 23.171 4.8213 23.378 4.1373 23.378ZM23.5718 23V18.788L24.1118 18.248H29.2418L27.3788 19.031C27.1088 18.833 26.9288 18.446 26.8388 17.87C26.7488 17.294 26.7038 16.592 26.7038 15.764V8.744L32.1038 8.204H32.4278V17.816C32.4278 18.176 32.4278 18.635 32.4278 19.193C32.4458 19.751 32.4638 20.3 32.4818 20.84C32.5178 21.38 32.5718 21.812 32.6438 22.136V22.352C32.1038 22.568 31.4558 22.73 30.6998 22.838C29.9618 22.946 29.0258 23 27.8918 23H23.5718ZM26.9198 27.347C26.9198 26.573 27.1538 25.979 27.6218 25.565C28.1078 25.151 28.6838 24.944 29.3498 24.944C30.0338 24.944 30.6098 25.151 31.0778 25.565C31.5458 25.979 31.7798 26.573 31.7798 27.347C31.7798 28.139 31.5458 28.742 31.0778 29.156C30.6098 29.588 30.0338 29.804 29.3498 29.804C28.6838 29.804 28.1078 29.588 27.6218 29.156C27.1538 28.742 26.9198 28.139 26.9198 27.347ZM41.0917 23V18.248H45.3307V22.46L44.7907 23H41.0917ZM36.3127 3.02L42.1447 2.48L42.2527 2.696C42.1807 3.02 42.1267 3.425 42.0907 3.911C42.0727 4.397 42.0547 4.892 42.0367 5.396C42.0367 5.9 42.0367 6.332 42.0367 6.692V23H36.3127V3.02ZM44.7974 23V18.788L45.3374 18.248H50.4674L48.6044 19.031C48.3344 18.833 48.1544 18.464 48.0644 17.924C47.9744 17.384 47.9294 16.7 47.9294 15.872V10.58L53.3294 10.04H53.6534V20.57L51.3314 18.248H58.8914L57.0284 19.031C56.7584 18.833 56.5784 18.464 56.4884 17.924C56.3984 17.384 56.3534 16.7 56.3534 15.872V9.716L61.7534 9.176H62.0774V20.57L59.7554 18.248H67.3154L65.4524 19.031C65.1824 18.833 65.0024 18.464 64.9124 17.924C64.8224 17.384 64.7774 16.7 64.7774 15.872V8.852L70.1774 8.312H70.5014V20.57L68.1794 18.248H73.3634V22.46V23H44.7974ZM72.5621 23V18.788L73.1021 18.248H86.0351L84.8741 18.896C83.8301 18.356 82.7501 17.69 81.6341 16.898C80.5181 16.088 79.4021 15.197 78.2861 14.225C77.1701 13.253 76.0901 12.254 75.0461 11.228L78.1781 6.8H78.5021C80.8781 9.032 82.9211 10.895 84.6311 12.389C86.3411 13.865 87.7991 15.035 89.0051 15.899C90.2111 16.745 91.2191 17.348 92.0291 17.708C92.8571 18.068 93.5591 18.248 94.1351 18.248H95.9981V18.572L94.2701 23H72.5621ZM112.281 23V18.248H123.702V22.46L123.162 23H112.281ZM103.155 22.676L104.883 18.248H112.659C113.991 18.248 114.882 18.095 115.332 17.789C115.782 17.483 116.007 17.042 116.007 16.466C116.007 15.998 115.908 15.593 115.71 15.251C115.53 14.909 115.368 14.648 115.224 14.468H117.465C116.619 14.666 115.89 14.819 115.278 14.927C114.666 15.035 114.108 15.116 113.604 15.17C113.118 15.206 112.623 15.224 112.119 15.224H111.039C110.589 15.224 110.031 15.206 109.365 15.17C108.717 15.134 108.051 15.053 107.367 14.927C106.701 14.801 106.089 14.612 105.531 14.36L106.935 9.932H107.259C107.997 10.166 108.825 10.319 109.743 10.391C110.661 10.445 111.561 10.472 112.443 10.472H113.307C114.225 10.472 115.107 10.445 115.953 10.391C116.817 10.337 117.519 10.256 118.059 10.148H118.383C118.833 10.562 119.283 11.075 119.733 11.687C120.201 12.299 120.597 12.965 120.921 13.685C121.245 14.405 121.407 15.134 121.407 15.872C121.407 16.754 121.191 17.6 120.759 18.41C120.345 19.22 119.607 19.949 118.545 20.597L117.762 22.406C117.24 22.586 116.646 22.73 115.98 22.838C115.314 22.946 114.567 23 113.739 23H103.155V22.676ZM123.701 18.248H128.939L127.076 19.031C126.806 18.833 126.626 18.464 126.536 17.924C126.446 17.384 126.401 16.7 126.401 15.872V8.744L131.801 8.204H132.125V20.57L129.803 18.248H135.365V22.46L134.825 23H123.161V18.788L123.701 18.248ZM128.588 26.969C128.588 26.195 128.822 25.601 129.29 25.187C129.776 24.773 130.352 24.566 131.018 24.566C131.702 24.566 132.278 24.773 132.746 25.187C133.214 25.601 133.448 26.195 133.448 26.969C133.448 27.761 133.214 28.364 132.746 28.778C132.278 29.21 131.702 29.426 131.018 29.426C130.352 29.426 129.776 29.21 129.29 28.778C128.822 28.364 128.588 27.761 128.588 26.969ZM123.107 27.563C123.107 26.789 123.341 26.195 123.809 25.781C124.295 25.367 124.871 25.16 125.537 25.16C126.221 25.16 126.797 25.367 127.265 25.781C127.733 26.195 127.967 26.789 127.967 27.563C127.967 28.355 127.733 28.958 127.265 29.372C126.797 29.804 126.221 30.02 125.537 30.02C124.871 30.02 124.295 29.804 123.809 29.372C123.341 28.958 123.107 28.355 123.107 27.563ZM134.815 23L134.842 18.788L135.382 18.248H157.198C158.53 18.248 159.421 18.122 159.871 17.87C160.321 17.6 160.546 17.222 160.546 16.736C160.546 16.268 160.447 15.818 160.249 15.386C160.069 14.954 159.907 14.648 159.763 14.468H162.004C161.158 14.666 160.429 14.819 159.817 14.927C159.205 15.035 158.647 15.116 158.143 15.17C157.657 15.206 157.162 15.224 156.658 15.224H140.998C139.954 15.224 139.081 14.963 138.379 14.441C137.677 13.901 137.254 12.974 137.11 11.66L148.45 1.724H148.774L150.934 5.072L142.807 11.957L142.024 10.472H157.846C158.764 10.472 159.646 10.445 160.492 10.391C161.356 10.337 162.058 10.256 162.598 10.148H162.922C163.372 10.562 163.831 11.12 164.299 11.822C164.785 12.524 165.199 13.316 165.541 14.198C165.883 15.062 166.054 15.98 166.054 16.952C166.054 17.726 165.919 18.482 165.649 19.22C165.397 19.94 164.947 20.588 164.299 21.164C163.669 21.722 162.796 22.172 161.68 22.514C160.582 22.838 159.178 23 157.468 23H134.815ZM174.114 23V18.248H178.353V22.46L177.813 23H174.114ZM169.335 3.02L175.167 2.48L175.275 2.696C175.203 3.02 175.149 3.425 175.113 3.911C175.095 4.397 175.077 4.892 175.059 5.396C175.059 5.9 175.059 6.332 175.059 6.692V23H169.335V3.02ZM177.82 23V18.788L178.36 18.248H183.49L181.627 19.031C181.357 18.833 181.177 18.446 181.087 17.87C180.997 17.294 180.952 16.592 180.952 15.764V8.744L186.352 8.204H186.676V17.816C186.676 18.176 186.676 18.635 186.676 19.193C186.694 19.751 186.712 20.3 186.73 20.84C186.766 21.38 186.82 21.812 186.892 22.136V22.352C186.352 22.568 185.704 22.73 184.948 22.838C184.21 22.946 183.274 23 182.14 23H177.82ZM186.865 5.693C186.199 5.693 185.623 5.486 185.137 5.072C184.669 4.64 184.435 4.037 184.435 3.263C184.435 2.471 184.669 1.868 185.137 1.454C185.623 1.04 186.199 0.832999 186.865 0.832999C187.549 0.832999 188.125 1.04 188.593 1.454C189.061 1.868 189.295 2.471 189.295 3.263C189.295 4.037 189.061 4.64 188.593 5.072C188.125 5.486 187.549 5.693 186.865 5.693ZM181.384 6.287C180.718 6.287 180.142 6.08 179.656 5.666C179.188 5.234 178.954 4.631 178.954 3.857C178.954 3.065 179.188 2.462 179.656 2.048C180.142 1.634 180.718 1.427 181.384 1.427C182.068 1.427 182.644 1.634 183.112 2.048C183.58 2.462 183.814 3.065 183.814 3.857C183.814 4.631 183.58 5.234 183.112 5.666C182.644 6.08 182.068 6.287 181.384 6.287Z" fill="#1F9E60"/>
</svg>
