<svg width="387" height="103" viewBox="0 0 387 103" fill="none" xmlns="http://www.w3.org/2000/svg">
<path d="M119.483 28.675C119.649 28.525 119.783 28.4 119.883 28.3C119.999 28.2167 120.074 28.15 120.108 28.1C122.191 28.3833 123.474 28.7167 123.958 29.1C124.424 29.4833 124.674 29.7583 124.708 29.925C124.758 30.575 124.674 31.2 124.458 31.8C124.241 32.4167 123.891 32.9083 123.408 33.275C122.708 33.825 121.974 34.3 121.208 34.7C120.458 35.1167 119.658 35.45 118.808 35.7C117.124 36.2 115.458 36.2833 113.808 35.95C112.658 35.7 111.724 35.1667 111.008 34.35C109.208 32.3167 109.633 29.0333 112.283 24.5C112.349 24.3833 112.433 24.325 112.533 24.325C112.649 24.325 112.733 24.3667 112.783 24.45C112.849 24.5333 112.841 24.6417 112.758 24.775C112.324 25.5417 111.966 26.2333 111.683 26.85C111.416 27.45 111.241 27.9917 111.158 28.475C110.991 29.425 111.166 30.4 111.683 31.4C112.199 32.3833 112.983 33.025 114.033 33.325C115.066 33.5917 116.191 33.65 117.408 33.5C118.624 33.3667 119.916 33 121.283 32.4C122.349 31.9167 123.158 31.375 123.708 30.775C123.141 30.425 121.683 30.05 119.333 29.65L119.483 28.675ZM117.283 38.55C117.316 38.5 117.383 38.4833 117.483 38.5C117.766 38.6167 118.041 38.75 118.308 38.9C118.574 39.05 118.824 39.225 119.058 39.425C119.124 39.4917 119.133 39.5583 119.083 39.625L118.008 41.35C117.974 41.4 117.908 41.3833 117.808 41.3C117.758 41.25 117.624 41.1583 117.408 41.025C117.208 40.9083 116.916 40.7417 116.533 40.525L115.683 41.85C115.633 41.9167 115.558 41.9083 115.458 41.825C115.391 41.775 115.224 41.6667 114.958 41.5C114.708 41.3333 114.349 41.1083 113.883 40.825C113.816 40.7917 113.808 40.75 113.858 40.7L114.958 39.05C114.991 39 115.049 38.9833 115.133 39C115.383 39.0833 115.616 39.1917 115.833 39.325C116.066 39.4583 116.283 39.6 116.483 39.75L117.283 38.55ZM120.451 9.875C120.485 9.775 120.576 9.71667 120.726 9.7C120.876 9.68333 120.96 9.73333 120.976 9.85C121.66 15.0667 122.16 18.3833 122.476 19.8C123.126 22.6167 123.943 24.2667 124.926 24.75C125.543 25.0667 125.743 25.6083 125.526 26.375C125.41 26.8417 125.21 27.05 124.926 27C123.91 26.8833 122.96 25.7417 122.076 23.575C121.976 25.425 121.576 26.975 120.876 28.225C120.71 28.5417 120.46 28.8417 120.126 29.125C119.793 29.4083 119.526 29.5833 119.326 29.65L119.476 28.675C120.16 28.1417 120.66 27.4667 120.976 26.65C121.31 25.8 121.401 24.3083 121.251 22.175C121.251 22.0583 121.201 21.6417 121.101 20.925C121.001 20.1917 120.86 19.1667 120.676 17.85L119.976 13.05C119.96 12.8833 119.951 12.7167 119.951 12.55C119.935 12.3667 119.935 12.1833 119.951 12C119.968 11.8167 120.018 11.55 120.101 11.2C120.185 10.8333 120.301 10.3917 120.451 9.875ZM131.009 24.75C131.309 24.8333 131.468 24.925 131.484 25.025C131.518 25.1583 131.518 25.3583 131.484 25.625C131.368 26.5417 131.209 27 131.009 27C130.109 27 129.209 26.4917 128.309 25.475C127.543 26.3917 126.409 26.9 124.909 27C124.743 27 124.634 26.875 124.584 26.625L124.384 25.575C124.334 25.425 124.368 25.25 124.484 25.05C124.584 24.8833 124.726 24.7833 124.909 24.75C126.743 24.6 127.976 24.05 128.609 23.1C128.693 22.9667 128.809 22.9 128.959 22.9C129.109 22.9 129.184 22.975 129.184 23.125C129.184 23.2583 129.201 23.3583 129.234 23.425C129.784 24.175 130.376 24.6167 131.009 24.75ZM127.684 29.8C127.718 29.75 127.784 29.7333 127.884 29.75C128.551 29.9833 129.143 30.3333 129.659 30.8C129.726 30.8667 129.734 30.9333 129.684 31L128.509 32.9C128.459 32.9833 128.376 32.975 128.259 32.875C128.193 32.825 128.018 32.7083 127.734 32.525C127.451 32.3417 127.043 32.0917 126.509 31.775C126.426 31.725 126.409 31.675 126.459 31.625L127.684 29.8ZM138.088 17.525C138.138 17.525 138.179 17.5333 138.213 17.55C138.246 17.55 138.279 17.5583 138.313 17.575C138.713 17.825 138.971 18.2833 139.088 18.95C139.304 20.2167 139.163 21.4083 138.663 22.525C138.546 22.7917 138.413 23.0583 138.263 23.325C138.113 23.5917 137.946 23.8583 137.763 24.125C138.279 24.3083 138.763 24.4583 139.213 24.575C139.663 24.675 140.079 24.7333 140.463 24.75C140.629 24.75 140.729 24.9583 140.763 25.375C140.863 26.425 140.763 26.9667 140.463 27C139.129 27.15 137.413 26.6667 135.313 25.55C134.679 25.8667 133.888 26.1833 132.938 26.5C131.938 26.8333 131.296 27 131.013 27C130.813 27 130.663 26.8167 130.563 26.45C130.513 26.2667 130.496 26.0833 130.513 25.9C130.513 25.7167 130.529 25.5333 130.563 25.35C130.646 24.9667 130.796 24.7667 131.013 24.75C131.496 24.6667 131.954 24.575 132.388 24.475C132.821 24.3583 133.246 24.2333 133.663 24.1C133.546 23.3667 133.646 22.575 133.963 21.725C134.229 21.0417 134.588 20.4 135.038 19.8C135.504 19.2 136.079 18.6417 136.763 18.125C137.296 17.725 137.738 17.525 138.088 17.525ZM136.963 20.175C136.163 20.0917 135.438 20.5167 134.788 21.45C134.604 21.6833 134.696 22.05 135.063 22.55C135.446 23.05 135.871 23.3 136.338 23.3C136.821 23.3 137.371 22.975 137.988 22.325C138.038 21.075 137.696 20.3583 136.963 20.175ZM136.788 10.5C136.821 10.45 136.888 10.4333 136.988 10.45C137.271 10.5667 137.546 10.7 137.813 10.85C138.079 11 138.329 11.175 138.563 11.375C138.629 11.4417 138.638 11.5083 138.588 11.575L137.513 13.3C137.479 13.35 137.413 13.3333 137.313 13.25C137.263 13.2 137.129 13.1167 136.913 13C136.713 12.8667 136.421 12.6917 136.038 12.475L135.188 13.8C135.138 13.8667 135.063 13.8583 134.963 13.775C134.896 13.725 134.729 13.6167 134.463 13.45C134.213 13.2833 133.854 13.0583 133.388 12.775C133.321 12.7417 133.313 12.7 133.363 12.65L134.463 11C134.496 10.95 134.554 10.9333 134.638 10.95C134.888 11.0333 135.121 11.1417 135.338 11.275C135.571 11.4083 135.788 11.55 135.988 11.7L136.788 10.5ZM146.561 24.75C146.861 24.8333 147.019 24.925 147.036 25.025C147.069 25.1583 147.069 25.3583 147.036 25.625C146.919 26.5417 146.761 27 146.561 27C145.661 27 144.761 26.4917 143.861 25.475C143.094 26.3917 141.961 26.9 140.461 27C140.294 27 140.186 26.875 140.136 26.625L139.936 25.575C139.886 25.425 139.919 25.25 140.036 25.05C140.136 24.8833 140.278 24.7833 140.461 24.75C142.294 24.6 143.528 24.05 144.161 23.1C144.244 22.9667 144.361 22.9 144.511 22.9C144.661 22.9 144.736 22.975 144.736 23.125C144.736 23.2583 144.753 23.3583 144.786 23.425C145.336 24.175 145.928 24.6167 146.561 24.75ZM144.036 16.125C144.069 16.075 144.136 16.0583 144.236 16.075C144.519 16.1917 144.794 16.325 145.061 16.475C145.328 16.625 145.578 16.8 145.811 17C145.878 17.0667 145.886 17.1333 145.836 17.2L144.761 18.925C144.728 18.975 144.661 18.9583 144.561 18.875C144.511 18.825 144.378 18.7417 144.161 18.625C143.961 18.4917 143.669 18.3167 143.286 18.1L142.436 19.425C142.386 19.4917 142.311 19.4833 142.211 19.4C142.144 19.35 141.978 19.2417 141.711 19.075C141.461 18.9083 141.103 18.6833 140.636 18.4C140.569 18.3667 140.561 18.325 140.611 18.275L141.711 16.625C141.744 16.575 141.803 16.5583 141.886 16.575C142.136 16.6583 142.369 16.7667 142.586 16.9C142.819 17.0333 143.036 17.175 143.236 17.325L144.036 16.125ZM149.764 22.95C149.864 22.75 149.981 22.625 150.114 22.575C150.248 22.525 150.364 22.5667 150.464 22.7C150.564 22.8333 150.556 23.025 150.439 23.275C150.373 23.3917 150.306 23.5167 150.239 23.65C150.189 23.7833 150.123 23.9167 150.039 24.05C152.056 24.8667 153.464 24.325 154.264 22.425C154.364 22.225 154.473 22.1 154.589 22.05C154.723 22 154.839 22.0333 154.939 22.15C155.039 22.2667 155.048 22.4333 154.964 22.65C154.764 23.1833 154.681 23.5583 154.714 23.775C154.764 24.175 155.073 24.4333 155.639 24.55C156.223 24.6667 156.656 24.5833 156.939 24.3C157.223 24.0167 157.489 23.3417 157.739 22.275C157.756 22.1417 157.856 22.075 158.039 22.075C158.223 22.075 158.339 22.1417 158.389 22.275C158.989 23.825 159.789 24.65 160.789 24.75C161.006 24.7833 161.148 25.0167 161.214 25.45C161.298 25.8833 161.289 26.2417 161.189 26.525C161.089 26.8417 160.956 27 160.789 27C159.423 27 158.423 26.175 157.789 24.525C157.756 24.425 157.714 24.425 157.664 24.525C157.348 25.5583 157.064 26.25 156.814 26.6C156.548 26.95 156.223 27.1417 155.839 27.175C154.656 27.225 153.764 26.7833 153.164 25.85C152.514 26.6167 151.714 27 150.764 27C149.831 27 149.123 26.675 148.639 26.025C147.989 26.675 147.298 27 146.564 27C146.248 27 146.056 26.4417 145.989 25.325C145.973 24.9917 146.164 24.8 146.564 24.75C148.214 24.6333 149.281 24.0333 149.764 22.95ZM166.598 19.05C167.732 19.0833 168.507 20.4667 168.923 23.2C168.957 23.3833 168.932 23.525 168.848 23.625L167.473 25.35C167.357 25.5167 167.198 25.575 166.998 25.525C165.715 25.1583 164.582 24.5583 163.598 23.725C162.815 25.9083 161.873 27 160.773 27C160.657 27 160.532 26.825 160.398 26.475C160.132 25.6417 160.123 25.1083 160.373 24.875C160.473 24.7917 160.607 24.75 160.773 24.75C161.54 24.7333 162.273 24.2667 162.973 23.35C163.207 23.0333 163.748 22.1167 164.598 20.6C165.182 19.5667 165.848 19.05 166.598 19.05ZM164.798 21.5C165.382 22.0667 166.132 22.45 167.048 22.65C167.065 21.9333 166.823 21.4583 166.323 21.225C165.823 20.9917 165.315 21.0833 164.798 21.5ZM189.065 23.75C189.548 23.7 190.048 23.675 190.565 23.675C191.082 23.675 191.607 23.7083 192.14 23.775C193.207 23.8917 193.965 24.1667 194.415 24.6C194.665 24.8333 194.757 25.2083 194.69 25.725C194.54 26.825 194.323 27.5583 194.04 27.925C193.74 28.325 193.29 28.75 192.69 29.2C189.773 31.4 186.865 32.4583 183.965 32.375C182.715 32.325 181.682 31.9667 180.865 31.3C180.048 30.6333 179.54 29.7833 179.34 28.75C179.14 27.7167 179.223 26.5 179.59 25.1C179.773 24.3833 180.007 23.7333 180.29 23.15C180.59 22.55 180.923 22.0083 181.29 21.525C181.44 21.3583 181.565 21.3333 181.665 21.45C181.782 21.5833 181.79 21.7333 181.69 21.9C180.673 23.45 180.198 24.825 180.265 26.025C180.415 28.675 181.932 30 184.815 30C187.715 30 190.598 28.7667 193.465 26.3C193.515 26.25 193.507 26.1917 193.44 26.125C192.923 25.575 191.307 25.2917 188.59 25.275C188.44 25.275 188.407 25.2083 188.49 25.075L189.065 23.75ZM187.465 34.75C187.498 34.7 187.565 34.6833 187.665 34.7C187.948 34.8167 188.223 34.95 188.49 35.1C188.757 35.25 189.007 35.425 189.24 35.625C189.307 35.6917 189.315 35.7583 189.265 35.825L188.19 37.55C188.157 37.6 188.09 37.5833 187.99 37.5C187.94 37.45 187.807 37.3583 187.59 37.225C187.39 37.1083 187.098 36.9417 186.715 36.725L185.865 38.05C185.815 38.1167 185.74 38.1083 185.64 38.025C185.573 37.975 185.407 37.8667 185.14 37.7C184.89 37.5333 184.532 37.3083 184.065 37.025C183.998 36.9917 183.99 36.95 184.04 36.9L185.14 35.25C185.173 35.2 185.232 35.1833 185.315 35.2C185.565 35.2833 185.798 35.3917 186.015 35.525C186.248 35.6583 186.465 35.8 186.665 35.95L187.465 34.75ZM192.53 16.075C193.413 17.3083 193.838 18.6833 193.805 20.2C193.805 20.5333 193.78 20.8583 193.73 21.175C193.696 21.4917 193.638 21.7917 193.555 22.075C192.971 24.2083 191.33 25.275 188.63 25.275C188.48 25.275 188.43 25.1833 188.48 25C188.58 24.6333 188.78 24.175 189.08 23.625C189.13 23.525 189.213 23.4667 189.33 23.45C191.346 23.15 192.613 22.5917 193.13 21.775C193.313 21.4917 193.28 21.1167 193.03 20.65C192.913 20.4167 192.796 20.2417 192.68 20.125C192.563 19.9917 192.446 19.8917 192.33 19.825C191.98 20.525 191.613 20.975 191.23 21.175C190.28 21.675 189.521 21.5 188.955 20.65C188.488 19.95 188.48 19.0333 188.93 17.9C189.63 16.1333 190.413 15.2417 191.28 15.225C191.696 15.2083 192.113 15.4917 192.53 16.075ZM190.13 17.7C189.946 17.7 189.73 17.85 189.48 18.15C189.38 18.2833 189.43 18.425 189.63 18.575C190.113 18.9417 190.613 18.8917 191.13 18.425C191.196 18.3583 191.196 18.2917 191.13 18.225C190.713 17.875 190.38 17.7 190.13 17.7ZM189.28 8.075C189.313 8.025 189.38 8.00833 189.48 8.025C190.146 8.25833 190.738 8.60833 191.255 9.075C191.321 9.14167 191.33 9.20833 191.28 9.275L190.105 11.175C190.055 11.2583 189.971 11.25 189.855 11.15C189.788 11.1 189.613 10.9833 189.33 10.8C189.046 10.6167 188.638 10.3667 188.105 10.05C188.021 10 188.005 9.95 188.055 9.9L189.28 8.075ZM220.162 9.275C220.345 8.975 220.454 9 220.487 9.35C220.504 9.51667 220.537 10.0083 220.587 10.825C220.654 11.625 220.745 12.75 220.862 14.2C221.245 18.9833 221.57 21.775 221.837 22.575C222.27 23.8083 222.82 24.5333 223.487 24.75C223.82 24.85 224.02 25.0833 224.087 25.45C224.154 25.8167 224.112 26.1667 223.962 26.5C223.812 26.8333 223.654 27 223.487 27C221.854 27 220.887 25.5417 220.587 22.625C220.32 23.275 219.904 23.95 219.337 24.65C218.804 25.3 218.237 25.7833 217.637 26.1C215.704 27.1 213.579 27.6333 211.262 27.7C207.845 27.8167 205.704 27.0667 204.837 25.45C204.604 24.9833 204.487 24.5333 204.487 24.1C204.537 22.4667 205.062 21.05 206.062 19.85C206.145 19.75 206.245 19.7 206.362 19.7C206.462 19.7 206.529 19.7583 206.562 19.875C206.579 19.975 206.537 20.1 206.437 20.25C205.72 21.3667 205.412 22.1833 205.512 22.7C205.862 24.4167 207.645 25.3 210.862 25.35C213.045 25.3667 215.312 24.925 217.662 24.025C218.479 23.6917 219.112 23.2 219.562 22.55C219.695 22.3667 219.77 22.0083 219.787 21.475C219.82 20.925 219.72 19.275 219.487 16.525C219.37 15.1417 219.279 14.1167 219.212 13.45C219.162 12.7667 219.137 12.425 219.137 12.425C219.037 11.475 219.095 10.8417 219.312 10.525L220.162 9.275ZM213.962 12.575C214.029 12.575 214.079 12.6083 214.112 12.675C214.129 12.725 214.129 12.7833 214.112 12.85L213.587 14.175C213.504 14.375 213.412 14.4917 213.312 14.525C212.862 14.625 212.537 14.8 212.337 15.05C212.237 15.1667 212.354 15.3 212.687 15.45C212.87 15.5167 213.062 15.575 213.262 15.625C213.479 15.675 213.712 15.7167 213.962 15.75C215.095 15.9167 215.079 16.825 213.912 18.475C213.545 18.9583 213.195 19.25 212.862 19.35C212.562 19.45 211.979 19.4583 211.112 19.375C210.695 19.3417 210.32 19.2833 209.987 19.2C209.654 19.1167 209.362 19.0333 209.112 18.95C208.929 18.8667 208.837 18.7583 208.837 18.625C208.837 18.475 208.92 18.4 209.087 18.4C209.52 18.3667 210.079 18.3417 210.762 18.325C212.112 18.3083 212.929 18.2167 213.212 18.05C213.279 18.0167 213.295 17.9583 213.262 17.875C213.245 17.825 213.179 17.7833 213.062 17.75L212.337 17.575C211.904 17.475 211.587 17.3083 211.387 17.075C211.154 16.825 211.079 16.5583 211.162 16.275C211.662 14.175 212.595 12.9417 213.962 12.575ZM224.969 21.725L225.669 20.175C225.802 19.875 225.952 19.8667 226.119 20.15C226.452 20.7667 226.652 21.4417 226.719 22.175C226.785 22.8917 226.71 23.6833 226.494 24.55C226.094 26.1833 225.085 27 223.469 27C223.302 27 223.127 26.575 222.944 25.725C222.86 25.2917 222.902 25 223.069 24.85C223.169 24.7667 223.302 24.7333 223.469 24.75C224.452 24.8 225.194 24.5333 225.694 23.95C225.727 23.9167 225.727 23.8583 225.694 23.775C225.594 23.3083 225.369 22.825 225.019 22.325C224.885 22.1417 224.869 21.9417 224.969 21.725ZM225.144 29.8C225.177 29.75 225.244 29.7333 225.344 29.75C226.01 29.9833 226.602 30.3333 227.119 30.8C227.185 30.8667 227.194 30.9333 227.144 31L225.969 32.9C225.919 32.9833 225.835 32.975 225.719 32.875C225.652 32.825 225.477 32.7083 225.194 32.525C224.91 32.3417 224.502 32.0917 223.969 31.775C223.885 31.725 223.869 31.675 223.919 31.625L225.144 29.8ZM238.504 2.775C238.737 2.60833 238.896 2.54167 238.979 2.575C239.079 2.60833 239.087 2.74166 239.004 2.975L238.779 3.65C238.712 3.88333 238.587 4.05833 238.404 4.175L234.479 6.575C234.179 6.75833 234.046 6.69167 234.079 6.375L234.154 5.95C234.204 5.75 234.321 5.575 234.504 5.425L238.504 2.775ZM238.429 0.524998C238.846 0.258332 239.004 0.324999 238.904 0.724998L238.754 1.3C238.671 1.55 238.512 1.74166 238.279 1.875L234.279 4.2C233.796 4.48333 233.646 4.40833 233.829 3.975L234.029 3.55C234.062 3.45 234.104 3.36667 234.154 3.3C234.204 3.21667 234.271 3.15 234.354 3.1L238.429 0.524998ZM237.454 9C237.521 8.88333 237.579 8.83333 237.629 8.85C237.713 8.85 237.779 9.025 237.829 9.375C238.129 11.9583 238.329 14.1667 238.429 16C238.513 17.7333 238.579 19.125 238.629 20.175C238.696 21.225 238.738 21.9333 238.754 22.3C238.871 23.8333 239.704 24.65 241.254 24.75C241.704 24.7833 241.879 25.0833 241.779 25.65C241.629 26.55 241.454 27 241.254 27C239.071 27 237.904 25.9833 237.754 23.95C237.688 23.1 237.629 22.25 237.579 21.4C237.546 20.5333 237.513 19.6667 237.479 18.8C237.429 17.0667 237.329 15.6667 237.179 14.6C237.029 13.5167 236.829 12.2917 236.579 10.925C236.529 10.675 236.554 10.4667 236.654 10.3L237.454 9ZM247.342 24.75C247.642 24.8333 247.801 24.925 247.817 25.025C247.851 25.1583 247.851 25.3583 247.817 25.625C247.701 26.5417 247.542 27 247.342 27C246.442 27 245.542 26.4917 244.642 25.475C243.876 26.3917 242.742 26.9 241.242 27C241.076 27 240.967 26.875 240.917 26.625L240.717 25.575C240.667 25.425 240.701 25.25 240.817 25.05C240.917 24.8833 241.059 24.7833 241.242 24.75C243.076 24.6 244.309 24.05 244.942 23.1C245.026 22.9667 245.142 22.9 245.292 22.9C245.442 22.9 245.517 22.975 245.517 23.125C245.517 23.2583 245.534 23.3583 245.567 23.425C246.117 24.175 246.709 24.6167 247.342 24.75ZM244.017 29.8C244.051 29.75 244.117 29.7333 244.217 29.75C244.884 29.9833 245.476 30.3333 245.992 30.8C246.059 30.8667 246.067 30.9333 246.017 31L244.842 32.9C244.792 32.9833 244.709 32.975 244.592 32.875C244.526 32.825 244.351 32.7083 244.067 32.525C243.784 32.3417 243.376 32.0917 242.842 31.775C242.759 31.725 242.742 31.675 242.792 31.625L244.017 29.8ZM247.496 21.55C247.629 21.0167 247.962 20.4917 248.496 19.975C249.062 19.4417 249.654 19.175 250.271 19.175C250.904 19.175 252.354 19.65 254.621 20.6C255.037 20.7667 255.512 20.925 256.046 21.075C256.579 21.2083 257.162 21.3417 257.796 21.475C259.079 21.725 260.396 21.8 261.746 21.7C262.112 21.6833 262.221 21.8333 262.071 22.15L261.371 23.675C261.271 23.875 261.096 23.95 260.846 23.9C258.962 23.5833 257.179 23.675 255.496 24.175C253.429 24.8583 251.779 25.5 250.546 26.1C249.346 26.7 248.279 27 247.346 27C247.246 27 247.162 26.9167 247.096 26.75C246.912 26.25 246.871 25.7917 246.971 25.375C247.071 24.9917 247.196 24.7833 247.346 24.75C248.546 24.6667 249.696 24.475 250.796 24.175C251.896 23.8583 252.954 23.4417 253.971 22.925C251.771 21.6583 249.746 21.3167 247.896 21.9C247.762 21.95 247.654 21.9333 247.571 21.85C247.504 21.7667 247.479 21.6667 247.496 21.55ZM275.553 27C274.103 27.75 272.903 28.7 271.953 29.85C271.519 30.3667 271.136 30.85 270.803 31.3C270.469 31.75 270.186 32.1667 269.953 32.55C268.719 34.5667 267.478 35.4583 266.228 35.225C265.528 35.1083 264.961 34.7167 264.528 34.05C264.144 33.5 264.003 32.65 264.103 31.5C264.203 30.4 264.719 28.9667 265.653 27.2C265.719 27.1 265.803 27.0333 265.903 27C266.003 26.9667 266.069 26.9917 266.103 27.075C266.136 27.175 266.144 27.25 266.128 27.3C266.111 27.3333 266.053 27.45 265.953 27.65C265.853 27.8667 265.711 28.1667 265.528 28.55C265.194 29.2167 264.978 29.8833 264.878 30.55C264.694 31.85 265.136 32.675 266.203 33.025C266.886 33.2583 267.494 33.1833 268.028 32.8C268.561 32.45 269.078 31.8333 269.578 30.95C270.194 29.8667 270.828 28.9167 271.478 28.1C272.128 27.2833 272.811 26.5917 273.528 26.025C273.811 25.7917 274.119 25.575 274.453 25.375C274.803 25.1583 275.169 24.95 275.553 24.75C275.869 24.5833 276.028 24.65 276.028 24.95C276.011 25.2667 275.986 25.575 275.953 25.875C275.936 26.1583 275.903 26.425 275.853 26.675C275.836 26.7917 275.736 26.9 275.553 27ZM275.544 24.75C276.477 24.25 277.569 23.8 278.819 23.4C278.936 23.35 278.919 23.3 278.769 23.25L278.344 23.075C278.094 22.975 277.994 22.8083 278.044 22.575C278.277 21.5917 278.527 20.9 278.794 20.5C278.961 20.2833 279.152 20.175 279.369 20.175C280.369 20.225 281.219 20.45 281.919 20.85C282.586 21.2333 282.861 21.975 282.744 23.075C282.627 23.7083 282.211 24.2167 281.494 24.6C281.027 24.85 280.552 25.075 280.069 25.275C279.602 25.4583 279.119 25.625 278.619 25.775C278.052 25.9417 277.511 26.1333 276.994 26.35C276.494 26.55 276.011 26.7667 275.544 27C275.227 26.8333 275.069 26.575 275.069 26.225C275.069 25.825 275.144 25.4917 275.294 25.225L275.544 24.75ZM2.58037 82.975H1.15537L0.530371 70.15H3.20537L2.58037 82.975ZM0.305371 86.65C0.305371 86.0333 0.455371 85.6 0.755371 85.35C1.05537 85.1 1.42204 84.975 1.85537 84.975C2.27204 84.975 2.63037 85.1 2.93037 85.35C3.24704 85.6 3.40537 86.0333 3.40537 86.65C3.40537 87.25 3.24704 87.6833 2.93037 87.95C2.63037 88.2167 2.27204 88.35 1.85537 88.35C1.42204 88.35 1.05537 88.2167 0.755371 87.95C0.455371 87.6833 0.305371 87.25 0.305371 86.65ZM16.1692 76.5C16.4526 77.05 16.7192 77.65 16.9692 78.3C17.2192 78.95 17.4359 79.6667 17.6192 80.45C17.8026 81.2167 17.9109 81.975 17.9442 82.725C17.9776 83.4583 17.9359 84.1917 17.8192 84.925C17.6859 85.725 17.4359 86.4083 17.0692 86.975C16.1026 88.4917 14.4109 89.3667 11.9942 89.6C10.2776 89.7667 8.96091 89.425 8.04424 88.575C7.16091 87.725 6.75257 86.5583 6.81924 85.075C6.90257 83.5583 7.41091 82.1583 8.34424 80.875C8.47757 80.6917 8.60257 80.6417 8.71924 80.725C8.86924 80.8083 8.86091 80.975 8.69424 81.225C7.66091 82.9583 7.46091 84.3667 8.09424 85.45C8.71091 86.5167 9.96924 87.05 11.8692 87.05C14.0859 87.0167 15.8442 86.2917 17.1442 84.875C17.1776 84.8417 17.1942 84.7667 17.1942 84.65C17.2109 83.8833 16.9692 82.8417 16.4692 81.525C16.2192 80.875 15.9859 80.3167 15.7692 79.85C15.5526 79.3667 15.3442 78.9833 15.1442 78.7C15.0276 78.5333 14.9942 78.3917 15.0442 78.275L15.7942 76.425C15.8776 76.225 16.0026 76.25 16.1692 76.5ZM11.5442 72.75C11.5776 72.7 11.6442 72.6833 11.7442 72.7C12.4109 72.9333 13.0026 73.2833 13.5192 73.75C13.5859 73.8167 13.5942 73.8833 13.5442 73.95L12.3692 75.85C12.3192 75.9333 12.2359 75.925 12.1192 75.825C12.0526 75.775 11.8776 75.6583 11.5942 75.475C11.3109 75.2917 10.9026 75.0417 10.3692 74.725C10.2859 74.675 10.2692 74.625 10.3192 74.575L11.5442 72.75ZM26.5009 86.5C27.7009 86.6167 28.6842 86.675 29.4509 86.675C30.2175 86.6583 30.7759 86.5917 31.1259 86.475C30.9592 84.8583 29.7842 82.525 27.6009 79.475C26.8175 78.375 26.1342 77.4583 25.5509 76.725C24.9675 75.975 24.4842 75.4167 24.1009 75.05L23.7259 75.7C23.5092 75.85 23.3092 75.8167 23.1259 75.6L21.4009 73.75C21.1509 73.4667 21.0509 73.1417 21.1009 72.775L21.4509 70.6C21.4842 70.3667 21.5592 70.25 21.6759 70.25C22.0259 70.2333 22.9592 71.1417 24.4759 72.975C25.2425 73.8917 25.9509 74.7917 26.6009 75.675C27.2675 76.5417 27.8759 77.3917 28.4259 78.225C30.7925 81.825 32.0509 84.7333 32.2009 86.95C32.2509 87.8833 32.0092 88.425 31.4759 88.575C29.9259 88.975 28.2259 89.025 26.3759 88.725C26.1925 88.7083 26.0759 88.65 26.0259 88.55C25.7259 87.8333 25.7675 87.225 26.1509 86.725C26.2842 86.5417 26.4009 86.4667 26.5009 86.5ZM27.7759 65.575C28.0759 65.5083 28.2759 65.6 28.3759 65.85C28.4759 66.1 28.4009 66.3083 28.1509 66.475C26.3509 67.6417 23.4425 68.1667 19.4259 68.05C19.2759 68.3667 19.1259 68.6167 18.9759 68.8C18.8425 68.9667 18.7259 69 18.6259 68.9L17.4509 67.7C17.2175 67.5 17.4759 66.9667 18.2259 66.1C18.3759 65.95 18.6092 65.9 18.9259 65.95C21.8925 66.4333 24.8425 66.3083 27.7759 65.575ZM29.447 86.65C28.947 87.15 28.3553 87.4083 27.672 87.425C27.2386 87.425 27.022 87.3417 27.022 87.175C27.022 86.9917 27.222 86.7917 27.622 86.575C30.322 85.075 31.8553 82.3333 32.222 78.35C32.422 76.3 32.447 74.2583 32.297 72.225C32.247 71.575 32.272 71.1667 32.372 71C32.5553 70.6833 32.697 70.4333 32.797 70.25C32.897 70.0667 32.9636 69.95 32.997 69.9C33.0803 69.8 33.1636 69.7583 33.247 69.775C33.3636 69.8083 33.4303 69.8667 33.447 69.95C33.697 70.9167 33.947 71.5417 34.197 71.825C34.447 72.0917 34.4553 72.3417 34.222 72.575L33.522 73.3C33.5553 74.2333 33.5136 75.2417 33.397 76.325C33.297 77.3917 33.1303 78.5417 32.897 79.775C32.347 82.6583 31.197 84.95 29.447 86.65ZM37.7909 71.25C38.1409 70.4333 38.3659 70.4167 38.4659 71.2L39.0409 77.325C39.6743 82.8417 39.5993 86.3417 38.8159 87.825C38.6993 88.025 38.6076 88.075 38.5409 87.975C38.4743 87.8917 38.4409 87.75 38.4409 87.55C38.4743 86.15 38.3743 84.575 38.1409 82.825C38.1409 82.7583 37.9659 81.175 37.6159 78.075L37.0659 73.55C37.0326 73.2167 37.0659 72.9333 37.1659 72.7L37.7909 71.25ZM54.6856 77.025C54.9023 76.725 55.0356 76.7917 55.0856 77.225C55.1023 77.3917 55.144 77.7167 55.2106 78.2C55.2773 78.6833 55.3606 79.3417 55.4606 80.175C55.5606 80.9917 55.6356 81.65 55.6856 82.15C55.7523 82.6333 55.794 82.95 55.8106 83.1C55.944 84.45 56.2273 85.2583 56.6606 85.525C56.9106 85.7083 57.2773 85.7833 57.7606 85.75C58.0606 85.75 58.2356 85.925 58.2856 86.275C58.3356 86.6417 58.3023 87.0167 58.1856 87.4C58.069 87.7667 57.9273 87.9667 57.7606 88C56.8273 88.0667 56.1356 87.8333 55.6856 87.3C55.219 86.7333 54.9023 85.7417 54.7356 84.325C54.269 85.2083 53.7856 85.75 53.2856 85.95C52.919 86.0833 52.4106 86.0917 51.7606 85.975C51.0606 85.8417 50.569 85.6583 50.2856 85.425C49.969 85.1583 49.8356 84.8667 49.8856 84.55C49.9356 84.1833 50.094 83.7333 50.3606 83.2C50.644 82.6333 50.8606 82.275 51.0106 82.125C51.894 81.275 52.944 80.525 54.1606 79.875C54.1106 79.1917 54.0856 78.6833 54.0856 78.35C54.0856 78.0167 54.1606 77.75 54.3106 77.55L54.6856 77.025ZM54.3356 81.4C53.0356 81.7667 52.1023 82.325 51.5356 83.075C51.469 83.175 51.494 83.2583 51.6106 83.325C51.944 83.4917 52.3356 83.5917 52.7856 83.625C53.2356 83.6417 53.744 83.5917 54.3106 83.475C54.394 83.4583 54.4856 83.4 54.5856 83.3C54.569 83.0333 54.5356 82.7417 54.4856 82.425C54.4523 82.1083 54.4023 81.7667 54.3356 81.4ZM52.5856 72.725C52.619 72.675 52.6856 72.6583 52.7856 72.675C53.069 72.7917 53.344 72.925 53.6106 73.075C53.8773 73.225 54.1273 73.4 54.3606 73.6C54.4273 73.6667 54.4356 73.7333 54.3856 73.8L53.3106 75.525C53.2773 75.575 53.2106 75.5583 53.1106 75.475C53.0606 75.425 52.9273 75.3417 52.7106 75.225C52.5106 75.0917 52.219 74.9167 51.8356 74.7L50.9856 76.025C50.9356 76.0917 50.8606 76.0833 50.7606 76C50.694 75.95 50.5273 75.8417 50.2606 75.675C50.0106 75.5083 49.6523 75.2833 49.1856 75C49.119 74.9667 49.1106 74.925 49.1606 74.875L50.2606 73.225C50.294 73.175 50.3523 73.1583 50.4356 73.175C50.6856 73.2583 50.919 73.3667 51.1356 73.5C51.369 73.6333 51.5856 73.775 51.7856 73.925L52.5856 72.725ZM63.8583 85.75C64.1583 85.8333 64.3166 85.925 64.3333 86.025C64.3666 86.1583 64.3666 86.3583 64.3333 86.625C64.2166 87.5417 64.0583 88 63.8583 88C62.9583 88 62.0583 87.4917 61.1583 86.475C60.3916 87.3917 59.2583 87.9 57.7583 88C57.5916 88 57.4833 87.875 57.4333 87.625L57.2333 86.575C57.1833 86.425 57.2166 86.25 57.3333 86.05C57.4333 85.8833 57.575 85.7833 57.7583 85.75C59.5916 85.6 60.825 85.05 61.4583 84.1C61.5416 83.9667 61.6583 83.9 61.8083 83.9C61.9583 83.9 62.0333 83.975 62.0333 84.125C62.0333 84.2583 62.05 84.3583 62.0833 84.425C62.6333 85.175 63.225 85.6167 63.8583 85.75ZM61.8583 89.775C61.8916 89.725 61.9583 89.7083 62.0583 89.725C62.3416 89.8417 62.6166 89.975 62.8833 90.125C63.15 90.275 63.4 90.45 63.6333 90.65C63.7 90.7167 63.7083 90.7833 63.6583 90.85L62.5833 92.575C62.55 92.625 62.4833 92.6083 62.3833 92.525C62.3333 92.475 62.2 92.3833 61.9833 92.25C61.7833 92.1333 61.4916 91.9667 61.1083 91.75L60.2583 93.075C60.2083 93.1417 60.1333 93.1333 60.0333 93.05C59.9666 93 59.8 92.8917 59.5333 92.725C59.2833 92.5583 58.925 92.3333 58.4583 92.05C58.3916 92.0167 58.3833 91.975 58.4333 91.925L59.5333 90.275C59.5666 90.225 59.625 90.2083 59.7083 90.225C59.9583 90.3083 60.1916 90.4167 60.4083 90.55C60.6416 90.6833 60.8583 90.825 61.0583 90.975L61.8583 89.775ZM69.4368 81.75C69.5368 81.7 69.6118 81.7167 69.6618 81.8C70.2618 82.7 71.0618 83.55 72.0618 84.35C73.0785 85.1667 74.2118 85.6333 75.4618 85.75C75.7785 85.7667 75.9368 85.975 75.9368 86.375C75.9368 87.4583 75.7785 88 75.4618 88C74.3285 88 73.1535 87.5833 71.9368 86.75C71.8535 87.6833 71.7535 88.2083 71.6368 88.325C71.5035 88.4583 71.3452 88.525 71.1618 88.525C69.2785 88.375 67.7201 87.55 66.4868 86.05C66.4368 85.9833 66.3785 85.9917 66.3118 86.075C65.4785 87.325 64.6618 87.9667 63.8618 88C63.6785 88 63.5535 87.8667 63.4868 87.6C63.2868 86.85 63.2951 86.3167 63.5118 86C63.6285 85.8333 63.7451 85.75 63.8618 85.75C65.4285 85.7 66.3868 85.3 66.7368 84.55C67.4701 83.0667 68.3701 82.1333 69.4368 81.75ZM69.3368 83.6C69.3035 83.55 69.2451 83.5333 69.1618 83.55C68.6618 83.6667 68.3035 83.875 68.0868 84.175C68.0035 84.2917 68.0118 84.3833 68.1118 84.45C68.4118 84.7 68.7368 84.925 69.0868 85.125C69.4535 85.3083 69.8451 85.4667 70.2618 85.6C70.3785 85.6333 70.4451 85.6333 70.4618 85.6C70.4951 85.5667 70.4785 85.5167 70.4118 85.45C70.2452 85.2167 70.0701 84.95 69.8868 84.65C69.7035 84.3333 69.5201 83.9833 69.3368 83.6ZM81.5341 85.75C81.8341 85.8333 81.9924 85.925 82.0091 86.025C82.0424 86.1583 82.0424 86.3583 82.0091 86.625C81.8924 87.5417 81.7341 88 81.5341 88C80.6341 88 79.7341 87.4917 78.8341 86.475C78.0674 87.3917 76.9341 87.9 75.4341 88C75.2674 88 75.1591 87.875 75.1091 87.625L74.9091 86.575C74.8591 86.425 74.8924 86.25 75.0091 86.05C75.1091 85.8833 75.2507 85.7833 75.4341 85.75C77.2674 85.6 78.5007 85.05 79.1341 84.1C79.2174 83.9667 79.3341 83.9 79.4841 83.9C79.6341 83.9 79.7091 83.975 79.7091 84.125C79.7091 84.2583 79.7257 84.3583 79.7591 84.425C80.3091 85.175 80.9007 85.6167 81.5341 85.75ZM79.5341 89.775C79.5674 89.725 79.6341 89.7083 79.7341 89.725C80.0174 89.8417 80.2924 89.975 80.5591 90.125C80.8257 90.275 81.0757 90.45 81.3091 90.65C81.3757 90.7167 81.3841 90.7833 81.3341 90.85L80.2591 92.575C80.2257 92.625 80.1591 92.6083 80.0591 92.525C80.0091 92.475 79.8757 92.3833 79.6591 92.25C79.4591 92.1333 79.1674 91.9667 78.7841 91.75L77.9341 93.075C77.8841 93.1417 77.8091 93.1333 77.7091 93.05C77.6424 93 77.4757 92.8917 77.2091 92.725C76.9591 92.5583 76.6007 92.3333 76.1341 92.05C76.0674 92.0167 76.0591 91.975 76.1091 91.925L77.2091 90.275C77.2424 90.225 77.3007 90.2083 77.3841 90.225C77.6341 90.3083 77.8674 90.4167 78.0841 90.55C78.3174 90.6833 78.5341 90.825 78.7341 90.975L79.5341 89.775ZM86.4876 85.75C86.6876 85.8 86.7876 86.0417 86.7876 86.475C86.7543 87.5083 86.6543 88.0167 86.4876 88C85.5376 87.8667 84.7126 86.9083 84.0126 85.125C83.8459 84.725 83.7376 84.75 83.6876 85.2C83.4209 87.0333 82.7043 87.9667 81.5376 88C81.4376 88 81.3459 87.9083 81.2626 87.725C80.8626 86.575 80.9543 85.9167 81.5376 85.75C82.1209 85.5667 82.5626 85.2667 82.8626 84.85C83.1126 84.4833 83.2293 84.0167 83.2126 83.45L82.7876 72.125C82.7876 71.9083 82.8209 71.7667 82.8876 71.7L83.6126 70.85C83.7793 70.6667 83.8709 70.7083 83.8876 70.975C83.9209 71.375 83.9543 71.85 83.9876 72.4C84.0376 72.95 84.0709 73.575 84.0876 74.275C84.1709 76.8083 84.2543 78.8 84.3376 80.25C84.4209 81.6833 84.4959 82.5667 84.5626 82.9C84.9626 84.6 85.6043 85.55 86.4876 85.75ZM95.6192 85.75C96.1859 85.75 96.4359 86.0417 96.3692 86.625C96.2359 87.525 95.9859 87.9833 95.6192 88C94.0859 88.1 92.5442 87.2417 90.9942 85.425C88.8942 87.1583 87.3859 88.0167 86.4692 88C86.0859 88 85.8276 87.6833 85.6942 87.05C85.5442 86.2167 85.8026 85.7833 86.4692 85.75C86.9859 85.7167 87.4859 85.6167 87.9692 85.45C88.4692 85.2833 88.9526 85.0417 89.4192 84.725C88.9026 84.2083 88.1442 83.875 87.1442 83.725C87.0442 83.7083 87.0026 83.6167 87.0192 83.45C87.0859 82.9667 87.5192 82.375 88.3192 81.675C89.7526 80.5083 91.3609 80.4667 93.1442 81.55C93.9942 82.0667 94.3942 82.5667 94.3442 83.05C94.2942 83.55 93.7109 84.15 92.5942 84.85C93.1942 85.45 94.2026 85.75 95.6192 85.75ZM101.725 85.75C102.025 85.8333 102.183 85.925 102.2 86.025C102.233 86.1583 102.233 86.3583 102.2 86.625C102.083 87.5417 101.925 88 101.725 88C100.825 88 99.9245 87.4917 99.0245 86.475C98.2578 87.3917 97.1245 87.9 95.6245 88C95.4578 88 95.3495 87.875 95.2995 87.625L95.0995 86.575C95.0495 86.425 95.0828 86.25 95.1995 86.05C95.2995 85.8833 95.4412 85.7833 95.6245 85.75C97.4578 85.6 98.6912 85.05 99.3245 84.1C99.4078 83.9667 99.5245 83.9 99.6745 83.9C99.8245 83.9 99.8995 83.975 99.8995 84.125C99.8995 84.2583 99.9162 84.3583 99.9495 84.425C100.5 85.175 101.091 85.6167 101.725 85.75ZM99.1995 77.125C99.2328 77.075 99.2995 77.0583 99.3995 77.075C99.6828 77.1917 99.9578 77.325 100.225 77.475C100.491 77.625 100.741 77.8 100.975 78C101.041 78.0667 101.05 78.1333 101 78.2L99.9245 79.925C99.8912 79.975 99.8245 79.9583 99.7245 79.875C99.6745 79.825 99.5412 79.7417 99.3245 79.625C99.1245 79.4917 98.8328 79.3167 98.4495 79.1L97.5995 80.425C97.5495 80.4917 97.4745 80.4833 97.3745 80.4C97.3078 80.35 97.1412 80.2417 96.8745 80.075C96.6245 79.9083 96.2662 79.6833 95.7995 79.4C95.7328 79.3667 95.7245 79.325 95.7745 79.275L96.8745 77.625C96.9078 77.575 96.9662 77.5583 97.0495 77.575C97.2995 77.6583 97.5328 77.7667 97.7495 77.9C97.9828 78.0333 98.1995 78.175 98.3995 78.325L99.1995 77.125ZM102.128 71.5C102.378 70.9 102.528 70.525 102.578 70.375C102.628 70.225 102.711 70.15 102.828 70.15C102.961 70.15 103.053 70.2333 103.103 70.4C103.353 71.15 103.711 71.7583 104.178 72.225C104.345 72.375 104.336 72.5667 104.153 72.8L103.603 73.575C103.653 74.0417 103.703 74.4917 103.753 74.925C103.803 75.3583 103.853 75.775 103.903 76.175C104.453 80.325 104.645 82.8417 104.478 83.725C103.945 86.375 103.028 87.8 101.728 88C101.695 88 101.661 88 101.628 88C101.395 87.9333 101.303 87.3833 101.353 86.35C101.353 85.9667 101.478 85.7667 101.728 85.75C102.645 85.65 103.278 85.275 103.628 84.625C103.611 83.975 103.545 83.1333 103.428 82.1C103.328 81.0667 103.186 79.8583 103.003 78.475C102.836 77.0917 102.695 75.975 102.578 75.125C102.461 74.275 102.386 73.6917 102.353 73.375L102.103 71.95C102.086 71.75 102.095 71.6 102.128 71.5ZM108.323 71.25C108.673 70.4333 108.898 70.4167 108.998 71.2L109.573 77.325C110.206 82.8417 110.131 86.3417 109.348 87.825C109.231 88.025 109.14 88.075 109.073 87.975C109.006 87.8917 108.973 87.75 108.973 87.55C109.006 86.15 108.906 84.575 108.673 82.825C108.673 82.7583 108.498 81.175 108.148 78.075L107.598 73.55C107.565 73.2167 107.598 72.9333 107.698 72.7L108.323 71.25ZM136.068 70.275C136.251 69.975 136.36 70 136.393 70.35C136.41 70.5167 136.443 71.0083 136.493 71.825C136.56 72.625 136.651 73.75 136.768 75.2C137.151 79.9833 137.476 82.775 137.743 83.575C138.176 84.8083 138.726 85.5333 139.393 85.75C139.726 85.85 139.926 86.0833 139.993 86.45C140.06 86.8167 140.018 87.1667 139.868 87.5C139.718 87.8333 139.56 88 139.393 88C137.76 88 136.793 86.5417 136.493 83.625C136.226 84.275 135.81 84.95 135.243 85.65C134.71 86.3 134.143 86.7833 133.543 87.1C131.61 88.1 129.485 88.6333 127.168 88.7C123.751 88.8167 121.61 88.0667 120.743 86.45C120.51 85.9833 120.393 85.5333 120.393 85.1C120.443 83.4667 120.968 82.05 121.968 80.85C122.051 80.75 122.151 80.7 122.268 80.7C122.368 80.7 122.435 80.7583 122.468 80.875C122.485 80.975 122.443 81.1 122.343 81.25C121.626 82.3667 121.318 83.1833 121.418 83.7C121.768 85.4167 123.551 86.3 126.768 86.35C128.951 86.3667 131.218 85.925 133.568 85.025C134.385 84.6917 135.018 84.2 135.468 83.55C135.601 83.3667 135.676 83.0083 135.693 82.475C135.726 81.925 135.626 80.275 135.393 77.525C135.276 76.1417 135.185 75.1167 135.118 74.45C135.068 73.7667 135.043 73.425 135.043 73.425C134.943 72.475 135.001 71.8417 135.218 71.525L136.068 70.275ZM129.868 73.575C129.935 73.575 129.985 73.6083 130.018 73.675C130.035 73.725 130.035 73.7833 130.018 73.85L129.493 75.175C129.41 75.375 129.318 75.4917 129.218 75.525C128.768 75.625 128.443 75.8 128.243 76.05C128.143 76.1667 128.26 76.3 128.593 76.45C128.776 76.5167 128.968 76.575 129.168 76.625C129.385 76.675 129.618 76.7167 129.868 76.75C131.001 76.9167 130.985 77.825 129.818 79.475C129.451 79.9583 129.101 80.25 128.768 80.35C128.468 80.45 127.885 80.4583 127.018 80.375C126.601 80.3417 126.226 80.2833 125.893 80.2C125.56 80.1167 125.268 80.0333 125.018 79.95C124.835 79.8667 124.743 79.7583 124.743 79.625C124.743 79.475 124.826 79.4 124.993 79.4C125.426 79.3667 125.985 79.3417 126.668 79.325C128.018 79.3083 128.835 79.2167 129.118 79.05C129.185 79.0167 129.201 78.9583 129.168 78.875C129.151 78.825 129.085 78.7833 128.968 78.75L128.243 78.575C127.81 78.475 127.493 78.3083 127.293 78.075C127.06 77.825 126.985 77.5583 127.068 77.275C127.568 75.175 128.501 73.9417 129.868 73.575ZM145.475 85.75C145.775 85.8333 145.933 85.925 145.95 86.025C145.983 86.1583 145.983 86.3583 145.95 86.625C145.833 87.5417 145.675 88 145.475 88C144.575 88 143.675 87.4917 142.775 86.475C142.008 87.3917 140.875 87.9 139.375 88C139.208 88 139.1 87.875 139.05 87.625L138.85 86.575C138.8 86.425 138.833 86.25 138.95 86.05C139.05 85.8833 139.191 85.7833 139.375 85.75C141.208 85.6 142.441 85.05 143.075 84.1C143.158 83.9667 143.275 83.9 143.425 83.9C143.575 83.9 143.65 83.975 143.65 84.125C143.65 84.2583 143.666 84.3583 143.7 84.425C144.25 85.175 144.841 85.6167 145.475 85.75ZM142.95 77.125C142.983 77.075 143.05 77.0583 143.15 77.075C143.433 77.1917 143.708 77.325 143.975 77.475C144.241 77.625 144.491 77.8 144.725 78C144.791 78.0667 144.8 78.1333 144.75 78.2L143.675 79.925C143.641 79.975 143.575 79.9583 143.475 79.875C143.425 79.825 143.291 79.7417 143.075 79.625C142.875 79.4917 142.583 79.3167 142.2 79.1L141.35 80.425C141.3 80.4917 141.225 80.4833 141.125 80.4C141.058 80.35 140.891 80.2417 140.625 80.075C140.375 79.9083 140.016 79.6833 139.55 79.4C139.483 79.3667 139.475 79.325 139.525 79.275L140.625 77.625C140.658 77.575 140.716 77.5583 140.8 77.575C141.05 77.6583 141.283 77.7667 141.5 77.9C141.733 78.0333 141.95 78.175 142.15 78.325L142.95 77.125ZM150.428 85.75C150.628 85.8 150.728 86.0417 150.728 86.475C150.695 87.5083 150.595 88.0167 150.428 88C149.478 87.8667 148.653 86.9083 147.953 85.125C147.786 84.725 147.678 84.75 147.628 85.2C147.361 87.0333 146.645 87.9667 145.478 88C145.378 88 145.286 87.9083 145.203 87.725C144.803 86.575 144.895 85.9167 145.478 85.75C146.061 85.5667 146.503 85.2667 146.803 84.85C147.053 84.4833 147.17 84.0167 147.153 83.45L146.728 72.125C146.728 71.9083 146.761 71.7667 146.828 71.7L147.553 70.85C147.72 70.6667 147.811 70.7083 147.828 70.975C147.861 71.375 147.895 71.85 147.928 72.4C147.978 72.95 148.011 73.575 148.028 74.275C148.111 76.8083 148.195 78.8 148.278 80.25C148.361 81.6833 148.436 82.5667 148.503 82.9C148.903 84.6 149.545 85.55 150.428 85.75ZM158.21 82.375C158.543 82.525 158.918 82.675 159.335 82.825C159.751 82.9583 160.21 83.0917 160.71 83.225C161.21 83.3417 161.701 83.4417 162.185 83.525C162.668 83.5917 163.143 83.6167 163.61 83.6C163.76 83.6 163.876 83.6333 163.96 83.7C164.043 83.7667 164.051 83.8833 163.985 84.05C163.835 84.3667 163.701 84.6417 163.585 84.875C163.485 85.1083 163.393 85.2917 163.31 85.425C163.143 85.6917 162.993 85.825 162.86 85.825C162.41 85.775 161.926 85.7583 161.41 85.775C160.91 85.7917 160.376 85.85 159.81 85.95C159.243 86.05 158.71 86.1583 158.21 86.275C157.71 86.3917 157.243 86.525 156.81 86.675C154.31 87.5083 152.751 87.95 152.135 88C151.518 88.05 150.943 88.05 150.41 88C150.36 86.4 150.385 85.5083 150.485 85.325C150.718 84.875 150.968 84.4417 151.235 84.025C151.501 83.6083 151.785 83.2083 152.085 82.825C153.051 81.6083 153.835 81.0167 154.435 81.05C154.735 81.0667 155.201 81.1833 155.835 81.4C156.468 81.6167 157.26 81.9417 158.21 82.375ZM156.61 84.375C155.576 83.7917 154.576 83.4833 153.61 83.45C153.11 83.45 152.635 83.65 152.185 84.05C151.751 84.4333 151.41 84.9833 151.16 85.7C151.926 85.75 153.385 85.5 155.535 84.95L156.61 84.675C156.693 84.6417 156.743 84.6083 156.76 84.575C156.793 84.525 156.743 84.4583 156.61 84.375ZM171.721 81.025C171.737 80.9583 171.762 80.9167 171.796 80.9C171.879 80.8667 172.004 80.9333 172.171 81.1C172.821 81.7667 173.304 82.6583 173.621 83.775C173.954 84.925 174.071 86.0417 173.971 87.125C173.771 88.5917 173.187 89.9417 172.221 91.175C171.254 92.425 169.987 93.25 168.421 93.65C168.021 93.7667 167.621 93.7583 167.221 93.625C166.254 93.2917 165.471 93 164.871 92.75C164.254 92.5167 163.829 92.325 163.596 92.175C163.529 92.125 163.496 92.075 163.496 92.025C163.496 91.9583 163.521 91.9 163.571 91.85C163.621 91.8 163.696 91.7917 163.796 91.825C164.379 91.9917 164.912 92.1 165.396 92.15C165.879 92.2167 166.329 92.225 166.746 92.175C167.162 92.125 167.604 92 168.071 91.8C168.554 91.6167 169.062 91.35 169.596 91C171.179 89.9833 172.337 88.7833 173.071 87.4C173.137 87.3 173.154 87.1667 173.121 87C172.871 86.1167 172.221 85.025 171.171 83.725C171.121 83.6417 171.104 83.575 171.121 83.525L171.721 81.025ZM185.381 71.25C185.731 70.4333 185.956 70.4167 186.056 71.2L186.631 77.325C187.264 82.8417 187.189 86.3417 186.406 87.825C186.289 88.025 186.198 88.075 186.131 87.975C186.064 87.8917 186.031 87.75 186.031 87.55C186.064 86.15 185.964 84.575 185.731 82.825C185.731 82.7583 185.556 81.175 185.206 78.075L184.656 73.55C184.623 73.2167 184.656 72.9333 184.756 72.7L185.381 71.25ZM187.656 67.7C187.206 67.7833 186.814 67.8583 186.481 67.925C186.164 67.9917 185.914 68.0583 185.731 68.125C185.548 68.1917 185.281 68.3 184.931 68.45C184.581 68.5833 184.148 68.7667 183.631 69C183.414 69.1 183.256 69.0667 183.156 68.9C182.956 68.6 183.281 68.1917 184.131 67.675C183.514 67.375 183.164 67.025 183.081 66.625C182.948 65.925 183.231 65.1 183.931 64.15C184.631 63.2 185.373 62.7583 186.156 62.825C186.656 62.875 186.881 63.1583 186.831 63.675C186.781 64.1917 186.631 64.625 186.381 64.975C186.148 65.3083 185.948 65.35 185.781 65.1C185.598 64.8 185.348 64.6417 185.031 64.625C184.698 64.5917 184.439 64.6917 184.256 64.925C184.056 65.175 184.064 65.3917 184.281 65.575C184.831 66.0917 185.648 66.3667 186.731 66.4C186.814 66.4 186.914 66.3917 187.031 66.375C187.164 66.3417 187.314 66.3083 187.481 66.275C187.664 66.2417 187.814 66.2167 187.931 66.2C188.048 66.1667 188.139 66.15 188.206 66.15C188.356 66.15 188.456 66.2083 188.506 66.325C188.556 66.425 188.564 66.5167 188.531 66.6C188.198 67.2833 187.906 67.65 187.656 67.7ZM197.415 76.15C197.599 77.0167 197.815 77.9167 198.065 78.85C198.315 79.7667 198.599 80.7333 198.915 81.75C199.565 83.7833 200.107 84.9167 200.54 85.15C200.94 85.3667 201.349 85.8083 201.765 86.475C202.299 87.325 202.265 87.8 201.665 87.9C200.099 88.1667 198.874 86.7667 197.99 83.7C197.974 83.65 197.94 83.625 197.89 83.625C197.857 83.625 197.824 83.65 197.79 83.7C197.707 84.1167 197.582 84.5833 197.415 85.1C197.249 85.6167 197.065 85.975 196.865 86.175C196.249 86.825 195.282 87.3333 193.965 87.7C192.632 88.0833 191.632 88.125 190.965 87.825C190.149 87.4917 190.032 86.3417 190.615 84.375C190.649 84.3083 190.707 84.275 190.79 84.275C190.89 84.275 190.957 84.3167 190.99 84.4C191.14 84.8 191.324 85.075 191.54 85.225C192.074 85.5583 193.074 85.525 194.54 85.125C196.14 84.6917 197.099 84.1417 197.415 83.475C197.599 83.0583 197.365 81.725 196.715 79.475C196.399 78.3083 196.299 77.55 196.415 77.2L196.89 75.85C196.957 75.6333 197.032 75.525 197.115 75.525C197.215 75.525 197.315 75.7333 197.415 76.15ZM202.476 84.225C202.276 83.875 202.093 83.6167 201.926 83.45C201.776 83.3 201.735 83.1 201.801 82.85L202.326 80.95C202.41 80.65 202.551 80.6667 202.751 81C203.051 81.4833 203.268 82.1917 203.401 83.125C203.518 83.975 203.526 84.7917 203.426 85.575C203.326 86.3083 203.151 86.8667 202.901 87.25C202.668 87.6 202.226 87.8167 201.576 87.9C200.943 87.9833 200.393 87.825 199.926 87.425C199.46 87.025 199.351 86.5 199.601 85.85C199.835 85.25 200.16 85.025 200.576 85.175C201.543 85.4917 202.276 85.4167 202.776 84.95C202.826 84.9 202.726 84.6583 202.476 84.225ZM201.326 90.8C201.36 90.75 201.426 90.7333 201.526 90.75C202.193 90.9833 202.785 91.3333 203.301 91.8C203.368 91.8667 203.376 91.9333 203.326 92L202.151 93.9C202.101 93.9833 202.018 93.975 201.901 93.875C201.835 93.825 201.66 93.7083 201.376 93.525C201.093 93.3417 200.685 93.0917 200.151 92.775C200.068 92.725 200.051 92.675 200.101 92.625L201.326 90.8ZM207.225 71.25C207.575 70.4333 207.8 70.4167 207.9 71.2L208.475 77.325C209.108 82.8417 209.033 86.3417 208.25 87.825C208.133 88.025 208.041 88.075 207.975 87.975C207.908 87.8917 207.875 87.75 207.875 87.55C207.908 86.15 207.808 84.575 207.575 82.825C207.575 82.7583 207.4 81.175 207.05 78.075L206.5 73.55C206.466 73.2167 206.5 72.9333 206.6 72.7L207.225 71.25ZM214.644 83.15C215.228 81.5333 215.911 80.7333 216.694 80.75C217.178 80.75 217.628 81.0833 218.044 81.75C218.261 82.0833 218.428 82.4333 218.544 82.8C218.661 83.1667 218.753 83.5583 218.819 83.975C218.953 84.8083 218.828 85.9667 218.444 87.45C218.061 88.9333 217.328 90.2917 216.244 91.525C215.144 92.775 214.269 93.4333 213.619 93.5C212.953 93.5667 212.069 93.5167 210.969 93.35C210.419 93.2667 209.953 93.1667 209.569 93.05C209.169 92.95 208.844 92.85 208.594 92.75C208.411 92.6667 208.328 92.5667 208.344 92.45C208.378 92.3167 208.486 92.2667 208.669 92.3C209.969 92.4833 211.211 92.4333 212.394 92.15C212.744 92.0667 213.169 91.8583 213.669 91.525C214.186 91.1917 214.778 90.7333 215.444 90.15C216.111 89.5667 216.644 89.0333 217.044 88.55C217.444 88.0667 217.703 87.625 217.819 87.225C217.736 86.525 217.636 86.1417 217.519 86.075C216.886 87.0583 216.078 87.3 215.094 86.8C214.111 86.3 213.961 85.0833 214.644 83.15ZM216.919 84.075C216.436 83.2917 215.919 83.2583 215.369 83.975C215.786 84.4417 216.303 84.475 216.919 84.075ZM246.004 85.75C246.504 85.85 246.696 86.1333 246.579 86.6C246.346 87.5667 246.154 88.0333 246.004 88C245.554 87.9833 245.104 87.8667 244.654 87.65C244.221 87.45 243.787 87.0333 243.354 86.4C242.921 85.7667 242.512 85.4333 242.129 85.4C241.762 85.3833 241.154 85.6083 240.304 86.075C239.471 86.5417 239.004 86.9333 238.904 87.25C238.621 88.2333 238.271 88.925 237.854 89.325C237.687 89.475 237.604 89.4833 237.604 89.35C237.537 88.6833 237.804 87.8583 238.404 86.875C239.004 85.8917 239.746 85.05 240.629 84.35C241.512 83.6333 242.262 83.2667 242.879 83.25C243.262 83.2333 243.687 83.6167 244.154 84.4C244.604 85.1667 245.221 85.6167 246.004 85.75ZM238.629 90.375C237.979 90.2083 237.629 89.8917 237.579 89.425C237.529 89.0083 237.821 88.3583 238.454 87.475C238.737 87.075 238.904 86.8833 238.954 86.9C238.987 86.9167 238.971 87.0333 238.904 87.25C238.754 87.7 238.962 88.0917 239.529 88.425C240.062 88.7417 240.721 88.95 241.504 89.05C243.187 89.25 244.229 89.425 244.629 89.575C245.029 89.725 245.312 89.9917 245.479 90.375C245.562 90.575 245.612 90.775 245.629 90.975C245.662 91.175 245.662 91.3833 245.629 91.6C245.579 92 245.446 92.3667 245.229 92.7C244.812 93.2833 243.762 93.975 242.079 94.775C240.396 95.575 238.521 96.0833 236.454 96.3C232.837 96.7 230.554 95.675 229.604 93.225C229.287 92.3583 229.262 91.1917 229.529 89.725C229.796 88.275 230.412 86.7917 231.379 85.275C231.462 85.175 231.554 85.125 231.654 85.125C231.771 85.125 231.854 85.175 231.904 85.275C231.954 85.3583 231.862 85.6 231.629 86C230.646 87.75 230.237 89.2417 230.404 90.475C230.637 92.075 231.746 93.1917 233.729 93.825C234.446 94.025 235.246 94.0917 236.129 94.025C237.496 93.9083 238.854 93.6417 240.204 93.225C241.554 92.825 242.912 92.2833 244.279 91.6C244.296 91.6 244.312 91.5917 244.329 91.575C244.346 91.5417 244.304 91.475 244.204 91.375C244.104 91.275 243.387 91.15 242.054 91C240.704 90.85 239.562 90.6417 238.629 90.375ZM237.729 98.825C237.762 98.775 237.829 98.7583 237.929 98.775C238.212 98.8917 238.487 99.025 238.754 99.175C239.021 99.325 239.271 99.5 239.504 99.7C239.571 99.7667 239.579 99.8333 239.529 99.9L238.454 101.625C238.421 101.675 238.354 101.658 238.254 101.575C238.204 101.525 238.071 101.433 237.854 101.3C237.654 101.183 237.362 101.017 236.979 100.8L236.129 102.125C236.079 102.192 236.004 102.183 235.904 102.1C235.837 102.05 235.671 101.942 235.404 101.775C235.154 101.608 234.796 101.383 234.329 101.1C234.262 101.067 234.254 101.025 234.304 100.975L235.404 99.325C235.437 99.275 235.496 99.2583 235.579 99.275C235.829 99.3583 236.062 99.4667 236.279 99.6C236.512 99.7333 236.729 99.875 236.929 100.025L237.729 98.825ZM252.341 81.475C252.391 81.3083 252.466 81.275 252.566 81.375C253.166 81.975 253.316 83.025 253.016 84.525C252.882 85.1417 252.674 85.6833 252.391 86.15C252.091 86.6333 251.841 86.8917 251.641 86.925C250.491 87.025 249.457 86.6083 248.541 85.675C247.741 87.225 246.891 88 245.991 88C245.857 88 245.749 87.825 245.666 87.475C245.449 86.375 245.557 85.8 245.991 85.75C246.924 85.65 247.649 85.3417 248.166 84.825C248.682 84.3083 249.107 83.4 249.441 82.1C249.491 81.9333 249.591 81.8583 249.741 81.875C249.907 81.8917 249.966 82 249.916 82.2C249.749 82.9333 249.691 83.4083 249.741 83.625C249.791 83.825 250.041 84.05 250.491 84.3C250.957 84.55 251.491 84.6917 252.091 84.725C252.091 84.725 252.099 84.725 252.116 84.725C252.149 84.7083 252.141 84.6333 252.091 84.5C252.041 84.3667 251.891 84.1333 251.641 83.8C251.591 83.75 251.582 83.675 251.616 83.575L252.341 81.475ZM256.809 71.25C257.159 70.4333 257.384 70.4167 257.484 71.2L258.059 77.325C258.693 82.8417 258.618 86.3417 257.834 87.825C257.718 88.025 257.626 88.075 257.559 87.975C257.493 87.8917 257.459 87.75 257.459 87.55C257.493 86.15 257.393 84.575 257.159 82.825C257.159 82.7583 256.984 81.175 256.634 78.075L256.084 73.55C256.051 73.2167 256.084 72.9333 256.184 72.7L256.809 71.25ZM266.154 81.025C266.171 80.9583 266.196 80.9167 266.229 80.9C266.313 80.8667 266.438 80.9333 266.604 81.1C267.254 81.7667 267.738 82.6583 268.054 83.775C268.388 84.925 268.504 86.0417 268.404 87.125C268.204 88.5917 267.621 89.9417 266.654 91.175C265.688 92.425 264.421 93.25 262.854 93.65C262.454 93.7667 262.054 93.7583 261.654 93.625C260.688 93.2917 259.904 93 259.304 92.75C258.688 92.5167 258.263 92.325 258.029 92.175C257.963 92.125 257.929 92.075 257.929 92.025C257.929 91.9583 257.954 91.9 258.004 91.85C258.054 91.8 258.129 91.7917 258.229 91.825C258.813 91.9917 259.346 92.1 259.829 92.15C260.313 92.2167 260.763 92.225 261.179 92.175C261.596 92.125 262.038 92 262.504 91.8C262.988 91.6167 263.496 91.35 264.029 91C265.613 89.9833 266.771 88.7833 267.504 87.4C267.571 87.3 267.588 87.1667 267.554 87C267.304 86.1167 266.654 85.025 265.604 83.725C265.554 83.6417 265.538 83.575 265.554 83.525L266.154 81.025ZM282.365 90.4C281.648 90.4 281.106 90.2417 280.74 89.925C279.956 89.2417 279.265 87.95 278.665 86.05C278.231 87.2833 277.806 88.05 277.39 88.35C276.19 89.1667 274.59 89.4917 272.59 89.325C271.99 89.275 271.64 88.9083 271.54 88.225C271.44 87.5417 271.565 86.75 271.915 85.85C271.965 85.7167 272.048 85.6417 272.165 85.625C272.315 85.6083 272.415 85.675 272.465 85.825C272.848 86.7083 273.74 87.05 275.14 86.85C277.14 86.55 278.206 85.825 278.34 84.675L277.315 79.775C277.248 79.4583 277.265 79.2083 277.365 79.025L277.79 78.275C277.873 78.125 277.948 78.05 278.015 78.05C278.115 78.0667 278.19 78.2167 278.24 78.5C278.573 80.2333 278.898 81.7083 279.215 82.925C279.548 84.125 279.856 85.0667 280.14 85.75C280.606 86.8333 281.331 87.4417 282.315 87.575C282.598 87.6083 282.781 87.8583 282.865 88.325C282.898 88.5417 282.915 88.7583 282.915 88.975C282.915 89.2083 282.881 89.4417 282.815 89.675C282.681 90.1583 282.531 90.4 282.365 90.4ZM281.147 71.025C281.197 70.8417 281.288 70.75 281.422 70.75C281.538 70.75 281.63 70.825 281.697 70.975C281.963 71.6917 282.347 72.25 282.847 72.65C283.047 72.8333 283.063 73.0583 282.897 73.325C282.813 73.4583 282.722 73.5917 282.622 73.725C282.538 73.8583 282.455 73.9917 282.372 74.125C282.322 74.1583 282.547 75.35 283.047 77.7C283.297 78.8667 283.505 79.9 283.672 80.8C283.838 81.6833 283.955 82.425 284.022 83.025C284.088 83.625 284.13 84.225 284.147 84.825C284.163 85.425 284.155 86.0333 284.122 86.65C284.005 88.9833 283.43 90.225 282.397 90.375C281.897 90.4583 281.58 90.2583 281.447 89.775C281.313 89.2917 281.347 88.8 281.547 88.3C281.747 87.7667 281.997 87.525 282.297 87.575C282.53 87.5917 282.713 87.6083 282.847 87.625C282.997 87.625 283.105 87.6083 283.172 87.575C283.372 87.2083 283.372 86.325 283.172 84.925C283.072 84.225 282.913 83.3083 282.697 82.175C282.48 81.025 282.213 79.65 281.897 78.05C281.58 76.45 281.33 75.2167 281.147 74.35C280.963 73.4833 280.855 72.9833 280.822 72.85C280.755 72.5667 280.78 72.2417 280.897 71.875C280.963 71.6917 281.022 71.5333 281.072 71.4C281.105 71.25 281.13 71.125 281.147 71.025ZM287.937 71.25C288.287 70.4333 288.512 70.4167 288.612 71.2L289.187 77.325C289.821 82.8417 289.746 86.3417 288.962 87.825C288.846 88.025 288.754 88.075 288.687 87.975C288.621 87.8917 288.587 87.75 288.587 87.55C288.621 86.15 288.521 84.575 288.287 82.825C288.287 82.7583 288.112 81.175 287.762 78.075L287.212 73.55C287.179 73.2167 287.212 72.9333 287.312 72.7L287.937 71.25ZM315.682 70.275C315.865 69.975 315.974 70 316.007 70.35C316.024 70.5167 316.057 71.0083 316.107 71.825C316.174 72.625 316.265 73.75 316.382 75.2C316.765 79.9833 317.09 82.775 317.357 83.575C317.79 84.8083 318.34 85.5333 319.007 85.75C319.34 85.85 319.54 86.0833 319.607 86.45C319.674 86.8167 319.632 87.1667 319.482 87.5C319.332 87.8333 319.174 88 319.007 88C317.374 88 316.407 86.5417 316.107 83.625C315.84 84.275 315.424 84.95 314.857 85.65C314.324 86.3 313.757 86.7833 313.157 87.1C311.224 88.1 309.099 88.6333 306.782 88.7C303.365 88.8167 301.224 88.0667 300.357 86.45C300.124 85.9833 300.007 85.5333 300.007 85.1C300.057 83.4667 300.582 82.05 301.582 80.85C301.665 80.75 301.765 80.7 301.882 80.7C301.982 80.7 302.049 80.7583 302.082 80.875C302.099 80.975 302.057 81.1 301.957 81.25C301.24 82.3667 300.932 83.1833 301.032 83.7C301.382 85.4167 303.165 86.3 306.382 86.35C308.565 86.3667 310.832 85.925 313.182 85.025C313.999 84.6917 314.632 84.2 315.082 83.55C315.215 83.3667 315.29 83.0083 315.307 82.475C315.34 81.925 315.24 80.275 315.007 77.525C314.89 76.1417 314.799 75.1167 314.732 74.45C314.682 73.7667 314.657 73.425 314.657 73.425C314.557 72.475 314.615 71.8417 314.832 71.525L315.682 70.275ZM309.482 73.575C309.549 73.575 309.599 73.6083 309.632 73.675C309.649 73.725 309.649 73.7833 309.632 73.85L309.107 75.175C309.024 75.375 308.932 75.4917 308.832 75.525C308.382 75.625 308.057 75.8 307.857 76.05C307.757 76.1667 307.874 76.3 308.207 76.45C308.39 76.5167 308.582 76.575 308.782 76.625C308.999 76.675 309.232 76.7167 309.482 76.75C310.615 76.9167 310.599 77.825 309.432 79.475C309.065 79.9583 308.715 80.25 308.382 80.35C308.082 80.45 307.499 80.4583 306.632 80.375C306.215 80.3417 305.84 80.2833 305.507 80.2C305.174 80.1167 304.882 80.0333 304.632 79.95C304.449 79.8667 304.357 79.7583 304.357 79.625C304.357 79.475 304.44 79.4 304.607 79.4C305.04 79.3667 305.599 79.3417 306.282 79.325C307.632 79.3083 308.449 79.2167 308.732 79.05C308.799 79.0167 308.815 78.9583 308.782 78.875C308.765 78.825 308.699 78.7833 308.582 78.75L307.857 78.575C307.424 78.475 307.107 78.3083 306.907 78.075C306.674 77.825 306.599 77.5583 306.682 77.275C307.182 75.175 308.115 73.9417 309.482 73.575ZM326.064 78.525C326.114 78.525 326.155 78.5333 326.189 78.55C326.222 78.55 326.255 78.5583 326.289 78.575C326.689 78.825 326.947 79.2833 327.064 79.95C327.28 81.2167 327.139 82.4083 326.639 83.525C326.522 83.7917 326.389 84.0583 326.239 84.325C326.089 84.5917 325.922 84.8583 325.739 85.125C326.255 85.3083 326.739 85.4583 327.189 85.575C327.639 85.675 328.055 85.7333 328.439 85.75C328.605 85.75 328.705 85.9583 328.739 86.375C328.839 87.425 328.739 87.9667 328.439 88C327.105 88.15 325.389 87.6667 323.289 86.55C322.655 86.8667 321.864 87.1833 320.914 87.5C319.914 87.8333 319.272 88 318.989 88C318.789 88 318.639 87.8167 318.539 87.45C318.489 87.2667 318.472 87.0833 318.489 86.9C318.489 86.7167 318.505 86.5333 318.539 86.35C318.622 85.9667 318.772 85.7667 318.989 85.75C319.472 85.6667 319.93 85.575 320.364 85.475C320.797 85.3583 321.222 85.2333 321.639 85.1C321.522 84.3667 321.622 83.575 321.939 82.725C322.205 82.0417 322.564 81.4 323.014 80.8C323.48 80.2 324.055 79.6417 324.739 79.125C325.272 78.725 325.714 78.525 326.064 78.525ZM324.939 81.175C324.139 81.0917 323.414 81.5167 322.764 82.45C322.58 82.6833 322.672 83.05 323.039 83.55C323.422 84.05 323.847 84.3 324.314 84.3C324.797 84.3 325.347 83.975 325.964 83.325C326.014 82.075 325.672 81.3583 324.939 81.175ZM324.514 71.875C324.547 71.825 324.614 71.8083 324.714 71.825C325.38 72.0583 325.972 72.4083 326.489 72.875C326.555 72.9417 326.564 73.0083 326.514 73.075L325.339 74.975C325.289 75.0583 325.205 75.05 325.089 74.95C325.022 74.9 324.847 74.7833 324.564 74.6C324.28 74.4167 323.872 74.1667 323.339 73.85C323.255 73.8 323.239 73.75 323.289 73.7L324.514 71.875ZM341.512 80.875C341.995 80.875 342.612 81.15 343.362 81.7C344.095 82.2333 344.412 82.7833 344.312 83.35C344.212 83.8833 343.945 84.55 343.512 85.35C343.079 86.1333 342.77 86.5917 342.587 86.725C341.07 87.8417 339.07 88.4 336.587 88.4C336.104 88.4 335.629 88.3667 335.162 88.3C334.695 88.2333 334.245 88.1417 333.812 88.025C333.679 88.2083 333.454 88.8917 333.137 90.075C333.087 90.325 332.92 90.4 332.637 90.3C332.387 90.2 332.27 90.0167 332.287 89.75C332.337 89.45 332.412 89.125 332.512 88.775C332.612 88.425 332.745 88.0583 332.912 87.675C332.045 87.3083 331.362 86.825 330.862 86.225C330.695 86.0083 330.554 85.9 330.437 85.9C330.337 85.9 330.237 86.0167 330.137 86.25C329.67 87.4167 329.104 88 328.437 88C328.354 88 328.262 87.9083 328.162 87.725C327.895 87.0917 327.82 86.625 327.937 86.325C328.07 85.9917 328.237 85.8 328.437 85.75C329.304 85.55 330.029 84.9083 330.612 83.825C330.729 83.6083 330.904 83.5 331.137 83.5C331.387 83.5 331.587 83.625 331.737 83.875C332.27 84.7083 333.154 85.3083 334.387 85.675C335.12 84.875 335.82 84.175 336.487 83.575C338.537 81.7917 340.212 80.8917 341.512 80.875ZM342.612 84.675C341.662 83.8083 340.595 83.425 339.412 83.525C338.945 83.575 338.245 83.9 337.312 84.5C336.845 84.8 336.454 85.0667 336.137 85.3C335.82 85.5333 335.579 85.7417 335.412 85.925C336.379 86.075 337.729 86.05 339.462 85.85C341.212 85.65 342.254 85.3417 342.587 84.925C342.687 84.8417 342.695 84.7583 342.612 84.675ZM351.318 91.7C351.201 91.6333 351.135 91.5583 351.118 91.475C351.101 91.4083 351.126 91.3417 351.193 91.275C351.243 91.225 351.326 91.2167 351.443 91.25C353.043 91.7167 354.468 91.7083 355.718 91.225C357.868 90.375 359.426 89.0833 360.393 87.35C360.41 87.3167 360.418 87.2917 360.418 87.275C360.435 87.2583 360.443 87.2417 360.443 87.225C360.443 86.6083 360.018 85.775 359.168 84.725C359.135 84.6583 359.126 84.6083 359.143 84.575L359.868 82.025C359.935 81.7917 360.16 81.9833 360.543 82.6C361.01 83.3333 361.301 84.225 361.418 85.275C361.485 85.775 361.41 86.5583 361.193 87.625C360.976 88.675 360.335 89.8083 359.268 91.025C358.218 92.225 357.226 92.875 356.293 92.975C354.61 93.1583 352.951 92.7333 351.318 91.7ZM364.668 80.275C364.835 80.3083 364.927 80.4417 364.943 80.675C364.96 80.7917 364.985 81.025 365.018 81.375C365.068 81.7083 365.127 82.15 365.193 82.7C365.31 83.7833 365.493 84.5333 365.743 84.95C365.993 85.3833 366.385 85.65 366.918 85.75C367.468 85.85 367.677 86.1667 367.543 86.7C367.343 87.5667 367.143 88 366.943 88C365.877 88 365.168 87.5 364.818 86.5C364.735 86.2333 364.652 85.9333 364.568 85.6C364.502 85.25 364.452 84.8583 364.418 84.425C364.385 83.9917 364.352 83.65 364.318 83.4C364.302 83.15 364.293 83.0083 364.293 82.975C364.293 82.9417 364.285 82.9333 364.268 82.95C364.252 82.95 364.227 82.9833 364.193 83.05C363.643 84.4167 362.602 85.125 361.068 85.175C360.402 85.1917 360.002 84.8667 359.868 84.2C359.768 83.6333 359.818 83.225 360.018 82.975C360.218 82.725 360.418 82.6667 360.618 82.8C360.802 82.9333 360.943 83 361.043 83C362.077 83.1 362.835 82.9333 363.318 82.5C363.635 82.25 363.977 81.5833 364.343 80.5C364.393 80.3167 364.502 80.2417 364.668 80.275ZM364.768 73.95C364.802 73.9 364.868 73.8833 364.968 73.9C365.252 74.0167 365.527 74.15 365.793 74.3C366.06 74.45 366.31 74.625 366.543 74.825C366.61 74.8917 366.618 74.9583 366.568 75.025L365.493 76.75C365.46 76.8 365.393 76.7833 365.293 76.7C365.243 76.65 365.11 76.5667 364.893 76.45C364.693 76.3167 364.402 76.1417 364.018 75.925L363.168 77.25C363.118 77.3167 363.043 77.3083 362.943 77.225C362.877 77.175 362.71 77.0667 362.443 76.9C362.193 76.7333 361.835 76.5083 361.368 76.225C361.302 76.1917 361.293 76.15 361.343 76.1L362.443 74.45C362.477 74.4 362.535 74.3833 362.618 74.4C362.868 74.4833 363.102 74.5917 363.318 74.725C363.552 74.8583 363.768 75 363.968 75.15L364.768 73.95ZM374.714 82.375C375.047 82.525 375.422 82.675 375.839 82.825C376.255 82.9583 376.714 83.0917 377.214 83.225C377.714 83.3417 378.205 83.4417 378.689 83.525C379.172 83.5917 379.647 83.6167 380.114 83.6C380.264 83.6 380.38 83.6333 380.464 83.7C380.547 83.7667 380.555 83.8833 380.489 84.05C380.339 84.3667 380.205 84.6417 380.089 84.875C379.989 85.1083 379.897 85.2917 379.814 85.425C379.647 85.6917 379.497 85.825 379.364 85.825C378.914 85.775 378.43 85.7583 377.914 85.775C377.414 85.7917 376.88 85.85 376.314 85.95C375.747 86.05 375.214 86.1583 374.714 86.275C374.214 86.3917 373.747 86.525 373.314 86.675C370.814 87.5083 369.255 87.95 368.639 88C368.022 88.05 367.447 88.05 366.914 88C366.864 86.4 366.889 85.5083 366.989 85.325C367.222 84.875 367.472 84.4417 367.739 84.025C368.005 83.6083 368.289 83.2083 368.589 82.825C369.555 81.6083 370.339 81.0167 370.939 81.05C371.239 81.0667 371.705 81.1833 372.339 81.4C372.972 81.6167 373.764 81.9417 374.714 82.375ZM373.114 84.375C372.08 83.7917 371.08 83.4833 370.114 83.45C369.614 83.45 369.139 83.65 368.689 84.05C368.255 84.4333 367.914 84.9833 367.664 85.7C368.43 85.75 369.889 85.5 372.039 84.95L373.114 84.675C373.197 84.6417 373.247 84.6083 373.264 84.575C373.297 84.525 373.247 84.4583 373.114 84.375ZM371.039 75.275C371.072 75.225 371.139 75.2083 371.239 75.225C371.905 75.4583 372.497 75.8083 373.014 76.275C373.08 76.3417 373.089 76.4083 373.039 76.475L371.864 78.375C371.814 78.4583 371.73 78.45 371.614 78.35C371.547 78.3 371.372 78.1833 371.089 78C370.805 77.8167 370.397 77.5667 369.864 77.25C369.78 77.2 369.764 77.15 369.814 77.1L371.039 75.275ZM384.3 71.25C384.65 70.4333 384.875 70.4167 384.975 71.2L385.55 77.325C386.183 82.8417 386.108 86.3417 385.325 87.825C385.208 88.025 385.116 88.075 385.05 87.975C384.983 87.8917 384.95 87.75 384.95 87.55C384.983 86.15 384.883 84.575 384.65 82.825C384.65 82.7583 384.475 81.175 384.125 78.075L383.575 73.55C383.541 73.2167 383.575 72.9333 383.675 72.7L384.3 71.25Z" fill="black"/>
</svg>
